<svg width="61" height="61" viewBox="0 0 61 61" fill="none" xmlns="http://www.w3.org/2000/svg">
<path d="M60.8887 30.6404C60.8887 47.2089 47.4572 60.6404 30.8887 60.6404C14.3201 60.6404 0.888672 47.2089 0.888672 30.6404C0.888672 14.0718 14.3201 0.640381 30.8887 0.640381C47.4572 0.640381 60.8887 14.0718 60.8887 30.6404Z" fill="#DBD5BF"/>
<path d="M22.7805 33.0729C25.4724 33.0729 27.6454 30.8999 27.6454 28.208C27.6454 25.5161 25.4724 23.3431 22.7805 23.3431C20.0886 23.3431 17.9156 25.5161 17.9156 28.208C17.9156 30.8999 20.0886 33.0729 22.7805 33.0729ZM22.7805 26.5864C23.6724 26.5864 24.4021 27.3161 24.4021 28.208C24.4021 29.0999 23.6724 29.8296 22.7805 29.8296C21.8886 29.8296 21.1589 29.0999 21.1589 28.208C21.1589 27.3161 21.8886 26.5864 22.7805 26.5864ZM42.24 21.7215H29.267V34.6945H16.294V18.4783H13.0508V42.8026H16.294V37.9377H45.4832V42.8026H48.7265V28.208C48.7265 24.6242 45.8238 21.7215 42.24 21.7215ZM45.4832 34.6945H32.5102V24.9648H42.24C44.0238 24.9648 45.4832 26.4242 45.4832 28.208V34.6945Z" fill="white"/>
</svg>
