<svg width="29" height="29" viewBox="0 0 29 29" fill="none" xmlns="http://www.w3.org/2000/svg">
<path d="M19.9808 11.9369C20.838 11.9369 21.5329 11.242 21.5329 10.3848C21.5329 9.52765 20.838 8.83276 19.9808 8.83276C19.1236 8.83276 18.4287 9.52765 18.4287 10.3848C18.4287 11.242 19.1236 11.9369 19.9808 11.9369Z" fill="#6D6CC1"/>
<path d="M8.97298 11.9369C9.83017 11.9369 10.5251 11.242 10.5251 10.3848C10.5251 9.52765 9.83017 8.83276 8.97298 8.83276C8.11579 8.83276 7.4209 9.52765 7.4209 10.3848C7.4209 11.242 8.11579 11.9369 8.97298 11.9369Z" fill="#6D6CC1"/>
<path fill-rule="evenodd" clip-rule="evenodd" d="M14.4626 2.04761C7.84174 2.04761 2.47656 7.42157 2.47656 14.0476C2.47656 20.6736 7.84174 26.0476 14.4626 26.0476C21.1013 26.0476 26.4766 20.6697 26.4766 14.0476C26.4766 7.42548 21.1013 2.04761 14.4626 2.04761ZM0.476562 14.0476C0.476562 6.31961 6.73456 0.0476074 14.4626 0.0476074C22.2046 0.0476074 28.4766 6.31961 28.4766 14.0476C28.4766 21.7756 22.2046 28.0476 14.4626 28.0476C6.73456 28.0476 0.476562 21.7756 0.476562 14.0476Z" fill="#6D6CC1"/>
<path fill-rule="evenodd" clip-rule="evenodd" d="M20.3684 19.778C19.8902 20.0543 19.2785 19.8907 19.0022 19.4126C18.3982 18.3675 16.711 17.4231 14.4758 17.4231C12.2406 17.4231 10.5534 18.3675 9.94942 19.4126C9.67307 19.8907 9.06141 20.0543 8.58324 19.778C8.10506 19.5017 7.94144 18.89 8.21779 18.4118C9.29888 16.5411 11.8033 15.4231 14.4758 15.4231C17.1483 15.4231 19.6527 16.5411 20.7338 18.4118C21.0102 18.89 20.8465 19.5017 20.3684 19.778Z" fill="#6D6CC1"/>
</svg>
