<svg width="111" height="42" viewBox="0 0 111 42" fill="none" xmlns="http://www.w3.org/2000/svg">
<g filter="url(#filter0_d_470_35874)">
<path d="M5 21C5 12.1634 12.1634 5 21 5H90C98.8366 5 106 12.1634 106 21C106 29.8366 98.8366 37 90 37H21C12.1634 37 5 29.8366 5 21Z" fill="#535659"/>
<path d="M31.18 18.99C31.18 18.992 31.1773 18.9925 31.1766 18.9906L29.48 14.32C29.19 13.53 28.44 13 27.6 13H26C25.4477 13 25 13.4477 25 14C25 14.5523 25.4477 15 26 15H27.4601C27.5441 15 27.6192 15.0525 27.648 15.1314L28.962 18.7314C29.0096 18.8619 28.913 19 28.7741 19H24.3906C24.3062 19 24.231 18.9471 24.2024 18.8677L23.89 18H24C24.5523 18 25 17.5523 25 17C25 16.4477 24.5523 16 24 16H21C20.4477 16 20 16.4477 20 17C20 17.5523 20.4477 18 21 18H21.6355C21.7042 18 21.7657 18.043 21.7892 18.1076L23.57 23H22.9C22.46 20.77 20.59 19.12 18.25 19.01C15.45 18.87 13 21.2 13 24C13 26.8 15.2 29 18 29C20.46 29 22.45 27.31 22.9 25H27.1C27.54 27.23 29.41 28.88 31.75 28.99C34.55 29.12 37 26.8 37 23.99C37 21.19 34.8 18.99 32 18.99H31.18ZM20.82 25C20.42 26.17 19.33 27 18 27C16.32 27 15 25.68 15 24C15 22.32 16.32 21 18 21C19.33 21 20.42 21.83 20.82 23H19C18.4477 23 18 23.4477 18 24C18 24.5523 18.4477 25 19 25H20.82ZM27.1335 22.8373C27.1123 22.9312 27.0302 23 26.9339 23H25.8399C25.7559 23 25.6808 22.9475 25.652 22.8686L25.068 21.2686C25.0204 21.1381 25.117 21 25.2559 21H27.5972C27.7626 21 27.8586 21.1909 27.7692 21.33C27.4768 21.7851 27.2567 22.2889 27.1335 22.8373ZM32 27C30.32 27 29 25.68 29 24C29 23.1764 29.3215 22.4548 29.8396 21.9185C29.9367 21.8179 30.1011 21.8605 30.1489 21.9919L30.6689 23.422C30.8574 23.9403 31.4299 24.2081 31.9485 24.0205C32.4683 23.8325 32.7369 23.2585 32.5481 22.739L31.951 21.0952C31.9359 21.0538 31.9659 21 32.01 21C33.69 21 35.01 22.32 35.01 24C35.01 25.68 33.68 27 32 27Z" fill="white"/>
<path d="M46.1262 16.212C45.8982 18.288 44.5542 20.94 41.5062 22.74L42.0102 23.232C43.3662 22.356 44.4942 21.264 45.3222 20.016C46.0302 21.12 46.8702 22.116 47.8422 22.884L48.4182 22.332C47.2662 21.516 46.3542 20.52 45.6942 19.428C46.4022 18.228 46.8102 16.944 46.9062 15.6C45.9342 15.636 45.0222 15.636 44.0742 15.636H42.2022V16.248H43.3902C44.3502 16.248 45.1662 16.248 46.1262 16.212ZM50.0982 18.84V14.664H49.4262V25.572H50.0982V19.476H52.0662V18.84H50.0982ZM53.1894 15.888H54.5094C55.4694 15.888 56.2494 15.888 57.1974 15.852C56.9094 17.4 55.4814 19.476 52.4094 20.688L52.8654 21.252C54.2214 20.628 55.3854 19.836 56.2614 18.912C56.9094 19.656 57.9054 20.496 58.7694 20.976L59.2614 20.412C58.2534 19.92 57.3054 19.14 56.6814 18.42C57.4494 17.46 57.8934 16.392 57.9894 15.228C57.0294 15.264 56.1654 15.264 55.2174 15.264H53.1894V15.888ZM60.7254 22.884H61.3974V14.664H60.7254V17.688H58.5654V18.312H60.7254V22.884ZM55.4334 24.732V22.212H54.7494V25.356H61.5774V24.732H55.4334ZM63.8646 23.196C67.0806 21.48 68.6766 18.972 68.9046 15.6C67.9086 15.636 66.9366 15.636 65.9646 15.636H63.8046V16.248H65.2326C66.2286 16.248 67.1286 16.248 68.1366 16.212C67.9806 18.588 66.3966 21.216 63.3846 22.692L63.8646 23.196ZM71.4246 25.572H72.0966V14.664H71.4246V18.936H69.0126V19.572H71.4246V25.572ZM85.4794 25.572V14.664H84.8074V17.136H81.9754C81.5074 15.948 80.6554 15.336 79.5994 15.336C78.0754 15.336 76.8754 16.692 76.8754 19.236C76.8754 21.78 78.0754 23.136 79.5994 23.136C80.7154 23.136 81.6394 22.428 82.0594 21.072H84.8074V25.572H85.4794ZM81.6394 19.236C81.6394 21.192 80.9314 22.536 79.5994 22.536C78.2794 22.536 77.5594 21.192 77.5594 19.236C77.5594 17.28 78.2794 15.936 79.5994 15.936C80.9314 15.936 81.6394 17.28 81.6394 19.236ZM82.3234 19.236C82.3234 18.672 82.2634 18.18 82.1674 17.736H84.8074V20.472H82.2154C82.2874 20.1 82.3234 19.692 82.3234 19.236ZM92.8066 25.632C95.0746 25.632 96.4186 24.816 96.4186 23.724C96.4186 22.608 95.0626 21.804 92.8066 21.804C90.5506 21.804 89.1946 22.608 89.1946 23.724C89.1946 24.816 90.5026 25.632 92.8066 25.632ZM92.8066 25.044C90.8866 25.044 89.9266 24.384 89.9266 23.712C89.9266 23.004 90.8866 22.38 92.8066 22.38C94.7266 22.38 95.6866 23.004 95.6866 23.712C95.6866 24.384 94.6786 25.044 92.8066 25.044ZM95.7946 14.664V18H94.1146V14.784H93.4666V21.216H94.1146V18.576H95.7946V21.696H96.4546V14.664H95.7946ZM88.5466 19.188C88.5466 18.468 89.0386 17.868 90.0826 17.868C91.1266 17.868 91.6186 18.468 91.6186 19.188C91.6186 19.92 91.1266 20.508 90.0826 20.508C89.0386 20.508 88.5466 19.92 88.5466 19.188ZM88.5586 15.264H91.5346V14.664H88.5586V15.264ZM87.3226 16.62H92.6626V16.056H87.3226V16.62ZM87.8986 19.188C87.8986 20.208 88.6426 21.084 90.0826 21.084C91.5226 21.084 92.2666 20.208 92.2666 19.188C92.2666 18.18 91.5226 17.304 90.0826 17.304C88.6426 17.304 87.8986 18.18 87.8986 19.188Z" fill="white"/>
</g>
<defs>
<filter id="filter0_d_470_35874" x="0.9" y="0.9" width="109.2" height="40.2" filterUnits="userSpaceOnUse" color-interpolation-filters="sRGB">
<feFlood flood-opacity="0" result="BackgroundImageFix"/>
<feColorMatrix in="SourceAlpha" type="matrix" values="0 0 0 0 0 0 0 0 0 0 0 0 0 0 0 0 0 0 127 0" result="hardAlpha"/>
<feMorphology radius="0.1" operator="dilate" in="SourceAlpha" result="effect1_dropShadow_470_35874"/>
<feOffset/>
<feGaussianBlur stdDeviation="2"/>
<feComposite in2="hardAlpha" operator="out"/>
<feColorMatrix type="matrix" values="0 0 0 0 0 0 0 0 0 0 0 0 0 0 0 0 0 0 0.25 0"/>
<feBlend mode="normal" in2="BackgroundImageFix" result="effect1_dropShadow_470_35874"/>
<feBlend mode="normal" in="SourceGraphic" in2="effect1_dropShadow_470_35874" result="shape"/>
</filter>
</defs>
</svg>
