<svg width="42" height="47" viewBox="0 0 42 47" fill="none" xmlns="http://www.w3.org/2000/svg">
<g filter="url(#filter0_d_269_22694)">
<path d="M30.2547 21.038C30.2547 15.062 25.6947 11.198 20.6547 11.198C15.6147 11.198 11.0547 15.062 11.0547 21.038C11.0547 25.022 14.2587 29.738 20.6547 35.198C27.0507 29.738 30.2547 25.022 30.2547 21.038Z" fill="#DBD5BF"/>
<path d="M20.3301 35.5783L20.6547 35.8554L20.9793 35.5783C24.1968 32.8317 26.6325 30.2548 28.267 27.8452C29.9004 25.4372 30.7547 23.1648 30.7547 21.038C30.7547 14.7706 25.9553 10.698 20.6547 10.698C15.3541 10.698 10.5547 14.7706 10.5547 21.038C10.5547 23.1648 11.409 25.4372 13.0424 27.8452C14.6769 30.2548 17.1126 32.8317 20.3301 35.5783Z" stroke="white"/>
</g>
<ellipse cx="20.6543" cy="21.1418" rx="7" ry="7" fill="white"/>
<path d="M18.3816 21.8418C19.1361 21.8418 19.7452 21.2165 19.7452 20.4418C19.7452 19.6672 19.1361 19.0418 18.3816 19.0418C17.627 19.0418 17.0179 19.6672 17.0179 20.4418C17.0179 21.2165 17.627 21.8418 18.3816 21.8418ZM18.3816 19.9752C18.6316 19.9752 18.8361 20.1852 18.8361 20.4418C18.8361 20.6985 18.6316 20.9085 18.3816 20.9085C18.1316 20.9085 17.927 20.6985 17.927 20.4418C17.927 20.1852 18.1316 19.9752 18.3816 19.9752ZM23.8361 18.5752H20.1998V22.3085H16.5634V17.6418H15.6543V24.6418H16.5634V23.2418H24.7452V24.6418H25.6543V20.4418C25.6543 19.4105 24.8407 18.5752 23.8361 18.5752ZM24.7452 22.3085H21.1088V19.5085H23.8361C24.3361 19.5085 24.7452 19.9285 24.7452 20.4418V22.3085Z" fill="#DBD5BF"/>
<defs>
<filter id="filter0_d_269_22694" x="0.0546875" y="0.197998" width="41.1992" height="46.3147" filterUnits="userSpaceOnUse" color-interpolation-filters="sRGB">
<feFlood flood-opacity="0" result="BackgroundImageFix"/>
<feColorMatrix in="SourceAlpha" type="matrix" values="0 0 0 0 0 0 0 0 0 0 0 0 0 0 0 0 0 0 127 0" result="hardAlpha"/>
<feOffset/>
<feGaussianBlur stdDeviation="5"/>
<feComposite in2="hardAlpha" operator="out"/>
<feColorMatrix type="matrix" values="0 0 0 0 0 0 0 0 0 0 0 0 0 0 0 0 0 0 0.25 0"/>
<feBlend mode="normal" in2="BackgroundImageFix" result="effect1_dropShadow_269_22694"/>
<feBlend mode="normal" in="SourceGraphic" in2="effect1_dropShadow_269_22694" result="shape"/>
</filter>
</defs>
</svg>
