<svg width="57" height="57" viewBox="0 0 57 57" fill="none" xmlns="http://www.w3.org/2000/svg">
<path d="M39.3649 23.8699C41.0793 23.8699 42.469 22.4772 42.469 20.7593C42.469 19.0413 41.0793 17.6487 39.3649 17.6487C37.6505 17.6487 36.2607 19.0413 36.2607 20.7593C36.2607 22.4772 37.6505 23.8699 39.3649 23.8699Z" fill="#6D6CC1"/>
<path d="M17.3493 23.8699C19.0636 23.8699 20.4534 22.4772 20.4534 20.7593C20.4534 19.0413 19.0636 17.6487 17.3493 17.6487C15.6349 17.6487 14.2451 19.0413 14.2451 20.7593C14.2451 22.4772 15.6349 23.8699 17.3493 23.8699Z" fill="#6D6CC1"/>
<path fill-rule="evenodd" clip-rule="evenodd" d="M28.3294 4.0503C15.0877 4.0503 4.35741 14.8205 4.35741 28.1001C4.35741 41.3797 15.0877 52.15 28.3294 52.15C41.6068 52.15 52.3573 41.3719 52.3573 28.1001C52.3573 14.8284 41.6068 4.0503 28.3294 4.0503ZM0.357422 28.1001C0.357422 12.612 12.8734 0.0419922 28.3294 0.0419922C43.8133 0.0419922 56.3573 12.612 56.3573 28.1001C56.3573 43.5882 43.8133 56.1583 28.3294 56.1583C12.8734 56.1583 0.357422 43.5882 0.357422 28.1001Z" fill="#6D6CC1"/>
<path fill-rule="evenodd" clip-rule="evenodd" d="M40.141 39.5847C39.1847 40.1386 37.9614 39.8107 37.4087 38.8523C36.2007 36.7578 32.8263 34.8652 28.3559 34.8652C23.8856 34.8652 20.5111 36.7578 19.3032 38.8523C18.7505 39.8107 17.5272 40.1386 16.5708 39.5847C15.6145 39.0309 15.2872 37.805 15.8399 36.8467C18.0021 33.0976 23.0108 30.8569 28.3559 30.8569C33.701 30.8569 38.7097 33.0976 40.8719 36.8467C41.4246 37.805 41.0974 39.0309 40.141 39.5847Z" fill="#6D6CC1"/>
</svg>
