<svg width="110" height="41" viewBox="0 0 110 41" fill="none" xmlns="http://www.w3.org/2000/svg">
<g filter="url(#filter0_d_269_22852)">
<path d="M4.80469 20.8456C4.80469 12.0091 11.9681 4.84564 20.8047 4.84564H89.8047C98.6412 4.84564 105.805 12.0091 105.805 20.8456C105.805 29.6822 98.6412 36.8456 89.8047 36.8456H20.8047C11.9681 36.8456 4.80469 29.6822 4.80469 20.8456Z" fill="#F9F9FA"/>
<path d="M30.9847 18.8356C30.9847 18.8376 30.9819 18.8381 30.9813 18.8362L29.2847 14.1656C28.9947 13.3756 28.2447 12.8456 27.4047 12.8456H25.8047C25.2524 12.8456 24.8047 13.2934 24.8047 13.8456C24.8047 14.3979 25.2524 14.8456 25.8047 14.8456H27.2648C27.3488 14.8456 27.4239 14.8981 27.4527 14.9771L28.7667 18.5771C28.8143 18.7075 28.7177 18.8456 28.5788 18.8456H24.1953C24.1109 18.8456 24.0356 18.7927 24.0071 18.7134L23.6947 17.8456H23.8047C24.357 17.8456 24.8047 17.3979 24.8047 16.8456C24.8047 16.2934 24.357 15.8456 23.8047 15.8456H20.8047C20.2524 15.8456 19.8047 16.2934 19.8047 16.8456C19.8047 17.3979 20.2524 17.8456 20.8047 17.8456H21.4402C21.5089 17.8456 21.5703 17.8886 21.5939 17.9532L23.3747 22.8456H22.7047C22.2647 20.6156 20.3947 18.9656 18.0547 18.8556C15.2547 18.7156 12.8047 21.0456 12.8047 23.8456C12.8047 26.6456 15.0047 28.8456 17.8047 28.8456C20.2647 28.8456 22.2547 27.1556 22.7047 24.8456H26.9047C27.3447 27.0756 29.2147 28.7256 31.5547 28.8356C34.3547 28.9656 36.8047 26.6456 36.8047 23.8356C36.8047 21.0356 34.6047 18.8356 31.8047 18.8356H30.9847ZM20.6247 24.8456C20.2247 26.0156 19.1347 26.8456 17.8047 26.8456C16.1247 26.8456 14.8047 25.5256 14.8047 23.8456C14.8047 22.1656 16.1247 20.8456 17.8047 20.8456C19.1347 20.8456 20.2247 21.6756 20.6247 22.8456H18.8047C18.2524 22.8456 17.8047 23.2934 17.8047 23.8456C17.8047 24.3979 18.2524 24.8456 18.8047 24.8456H20.6247ZM26.9382 22.6829C26.917 22.7769 26.8349 22.8456 26.7386 22.8456H25.6446C25.5606 22.8456 25.4855 22.7931 25.4567 22.7142L24.8727 21.1142C24.8251 20.9837 24.9217 20.8456 25.0606 20.8456H27.4019C27.5672 20.8456 27.6633 21.0365 27.5739 21.1756C27.2815 21.6308 27.0614 22.1346 26.9382 22.6829ZM31.8047 26.8456C30.1247 26.8456 28.8047 25.5256 28.8047 23.8456C28.8047 23.0221 29.1262 22.3004 29.6443 21.7641C29.7414 21.6635 29.9058 21.7061 29.9536 21.8376L30.4736 23.2677C30.6621 23.786 31.2346 24.0537 31.7532 23.8662C32.273 23.6782 32.5416 23.1041 32.3528 22.5847L31.7556 20.9409C31.7406 20.8994 31.7706 20.8456 31.8147 20.8456C33.4947 20.8456 34.8147 22.1656 34.8147 23.8456C34.8147 25.5256 33.4847 26.8456 31.8047 26.8456Z" fill="#535659"/>
<path d="M45.9308 16.0576C45.7028 18.1336 44.3588 20.7856 41.3108 22.5856L41.8148 23.0776C43.1708 22.2016 44.2988 21.1096 45.1268 19.8616C45.8348 20.9656 46.6748 21.9616 47.6468 22.7296L48.2228 22.1776C47.0708 21.3616 46.1588 20.3656 45.4988 19.2736C46.2068 18.0736 46.6148 16.7896 46.7108 15.4456C45.7388 15.4816 44.8268 15.4816 43.8788 15.4816H42.0068V16.0936H43.1948C44.1548 16.0936 44.9708 16.0936 45.9308 16.0576ZM49.9028 18.6856V14.5096H49.2308V25.4176H49.9028V19.3216H51.8708V18.6856H49.9028ZM52.9941 15.7336H54.3141C55.2741 15.7336 56.0541 15.7336 57.0021 15.6976C56.7141 17.2456 55.2861 19.3216 52.2141 20.5336L52.6701 21.0976C54.0261 20.4736 55.1901 19.6816 56.0661 18.7576C56.7141 19.5016 57.7101 20.3416 58.5741 20.8216L59.0661 20.2576C58.0581 19.7656 57.1101 18.9856 56.4861 18.2656C57.2541 17.3056 57.6981 16.2376 57.7941 15.0736C56.8341 15.1096 55.9701 15.1096 55.0221 15.1096H52.9941V15.7336ZM60.5301 22.7296H61.2021V14.5096H60.5301V17.5336H58.3701V18.1576H60.5301V22.7296ZM55.2381 24.5776V22.0576H54.5541V25.2016H61.3821V24.5776H55.2381ZM63.6693 23.0416C66.8853 21.3256 68.4813 18.8176 68.7093 15.4456C67.7133 15.4816 66.7413 15.4816 65.7693 15.4816H63.6093V16.0936H65.0373C66.0333 16.0936 66.9333 16.0936 67.9413 16.0576C67.7853 18.4336 66.2013 21.0616 63.1893 22.5376L63.6693 23.0416ZM71.2293 25.4176H71.9013V14.5096H71.2293V18.7816H68.8173V19.4176H71.2293V25.4176ZM85.2841 25.4176V14.5096H84.6121V16.9816H81.7801C81.3121 15.7936 80.4601 15.1816 79.4041 15.1816C77.8801 15.1816 76.6801 16.5376 76.6801 19.0816C76.6801 21.6256 77.8801 22.9816 79.4041 22.9816C80.5201 22.9816 81.4441 22.2736 81.8641 20.9176H84.6121V25.4176H85.2841ZM81.4441 19.0816C81.4441 21.0376 80.7361 22.3816 79.4041 22.3816C78.0841 22.3816 77.3641 21.0376 77.3641 19.0816C77.3641 17.1256 78.0841 15.7816 79.4041 15.7816C80.7361 15.7816 81.4441 17.1256 81.4441 19.0816ZM82.1281 19.0816C82.1281 18.5176 82.0681 18.0256 81.9721 17.5816H84.6121V20.3176H82.0201C82.0921 19.9456 82.1281 19.5376 82.1281 19.0816ZM92.6113 25.4776C94.8793 25.4776 96.2233 24.6616 96.2233 23.5696C96.2233 22.4536 94.8673 21.6496 92.6113 21.6496C90.3553 21.6496 88.9993 22.4536 88.9993 23.5696C88.9993 24.6616 90.3073 25.4776 92.6113 25.4776ZM92.6113 24.8896C90.6913 24.8896 89.7313 24.2296 89.7313 23.5576C89.7313 22.8496 90.6913 22.2256 92.6113 22.2256C94.5313 22.2256 95.4913 22.8496 95.4913 23.5576C95.4913 24.2296 94.4833 24.8896 92.6113 24.8896ZM95.5993 14.5096V17.8456H93.9193V14.6296H93.2713V21.0616H93.9193V18.4216H95.5993V21.5416H96.2593V14.5096H95.5993ZM88.3513 19.0336C88.3513 18.3136 88.8433 17.7136 89.8873 17.7136C90.9313 17.7136 91.4233 18.3136 91.4233 19.0336C91.4233 19.7656 90.9313 20.3536 89.8873 20.3536C88.8433 20.3536 88.3513 19.7656 88.3513 19.0336ZM88.3633 15.1096H91.3393V14.5096H88.3633V15.1096ZM87.1273 16.4656H92.4673V15.9016H87.1273V16.4656ZM87.7033 19.0336C87.7033 20.0536 88.4473 20.9296 89.8873 20.9296C91.3273 20.9296 92.0713 20.0536 92.0713 19.0336C92.0713 18.0256 91.3273 17.1496 89.8873 17.1496C88.4473 17.1496 87.7033 18.0256 87.7033 19.0336Z" fill="#535659"/>
</g>
<defs>
<filter id="filter0_d_269_22852" x="0.704687" y="0.745642" width="109.2" height="40.2" filterUnits="userSpaceOnUse" color-interpolation-filters="sRGB">
<feFlood flood-opacity="0" result="BackgroundImageFix"/>
<feColorMatrix in="SourceAlpha" type="matrix" values="0 0 0 0 0 0 0 0 0 0 0 0 0 0 0 0 0 0 127 0" result="hardAlpha"/>
<feMorphology radius="0.1" operator="dilate" in="SourceAlpha" result="effect1_dropShadow_269_22852"/>
<feOffset/>
<feGaussianBlur stdDeviation="2"/>
<feComposite in2="hardAlpha" operator="out"/>
<feColorMatrix type="matrix" values="0 0 0 0 0 0 0 0 0 0 0 0 0 0 0 0 0 0 0.25 0"/>
<feBlend mode="normal" in2="BackgroundImageFix" result="effect1_dropShadow_269_22852"/>
<feBlend mode="normal" in="SourceGraphic" in2="effect1_dropShadow_269_22852" result="shape"/>
</filter>
</defs>
</svg>
