<svg width="21" height="25" viewBox="0 0 21 25" fill="none" xmlns="http://www.w3.org/2000/svg">
<path d="M10.9207 24.5277C12.2653 24.5277 13.3907 23.55 13.6095 22.2762C13.652 22.0288 13.4445 21.8237 13.1935 21.8237H8.648C8.39696 21.8237 8.18942 22.0288 8.23192 22.2762C8.45071 23.55 9.57615 24.5277 10.9207 24.5277ZM20.4021 19.3983C19.6317 19.1719 19.1025 18.4649 19.1025 17.6619V12.2565C19.1025 8.10591 16.8798 4.63131 12.9662 3.71197V2.79262C12.9662 1.67048 12.0525 0.764648 10.9207 0.764648C9.78891 0.764648 8.87527 1.67048 8.87527 2.79262V3.71197C4.97527 4.63131 2.73892 8.09239 2.73892 12.2565V17.6635C2.73892 18.4656 2.21052 19.1719 1.44103 19.3983C1.13323 19.4888 0.921875 19.7713 0.921875 20.0922V20.1296C0.921875 20.5567 1.26812 20.903 1.69524 20.903H20.1486C20.5757 20.903 20.9219 20.5568 20.9219 20.1297V20.0928C20.9219 19.7716 20.7102 19.4888 20.4021 19.3983ZM17.2841 18.1073C17.2841 18.6094 16.8771 19.0164 16.3751 19.0164H5.46597C4.96389 19.0164 4.55687 18.6094 4.55687 18.1073V12.2565C4.55687 8.90358 7.52527 5.2611 10.9207 5.2611C14.3162 5.2611 17.2841 8.90358 17.2841 12.2565V18.1073Z" fill="#364154"/>
</svg>
