<svg width="104" height="42" viewBox="0 0 104 42" fill="none" xmlns="http://www.w3.org/2000/svg">
<g filter="url(#filter0_d_470_35868)">
<path d="M4.80469 20.9041C4.80469 12.0676 11.9681 4.90411 20.8047 4.90411H83.8047C92.6412 4.90411 99.8047 12.0676 99.8047 20.9041C99.8047 29.7407 92.6412 36.9041 83.8047 36.9041H20.8047C11.9681 36.9041 4.80469 29.7407 4.80469 20.9041Z" fill="#535659"/>
<path d="M28.7247 13.9141C28.5247 13.3241 27.9647 12.9041 27.3047 12.9041H16.3047C15.6447 12.9041 15.0947 13.3241 14.8847 13.9141L12.8047 19.9041V27.9041C12.8047 28.4541 13.2547 28.9041 13.8047 28.9041H14.8047C15.3547 28.9041 15.8047 28.4541 15.8047 27.9041V27.1041C15.8047 26.9937 15.8942 26.9041 16.0047 26.9041H27.6047C27.7151 26.9041 27.8047 26.9937 27.8047 27.1041V27.9041C27.8047 28.4541 28.2547 28.9041 28.8047 28.9041H29.8047C30.3547 28.9041 30.8047 28.4541 30.8047 27.9041V19.9041L28.7247 13.9141ZM16.6081 15.0386C16.636 14.9581 16.7118 14.9041 16.797 14.9041H26.8023C26.8876 14.9041 26.9634 14.9581 26.9913 15.0386L27.8926 17.6386C27.9377 17.7685 27.8412 17.9041 27.7037 17.9041H15.8957C15.7582 17.9041 15.6617 17.7685 15.7067 17.6386L16.6081 15.0386ZM28.8047 24.7041C28.8047 24.8146 28.7151 24.9041 28.6047 24.9041H15.0047C14.8942 24.9041 14.8047 24.8146 14.8047 24.7041V20.2441L14.9247 19.9041H28.6947L28.8047 20.2441V24.7041Z" fill="white"/>
<path d="M17.3047 23.9041C18.1331 23.9041 18.8047 23.2325 18.8047 22.4041C18.8047 21.5757 18.1331 20.9041 17.3047 20.9041C16.4763 20.9041 15.8047 21.5757 15.8047 22.4041C15.8047 23.2325 16.4763 23.9041 17.3047 23.9041Z" fill="white"/>
<path d="M26.3047 23.9041C27.1331 23.9041 27.8047 23.2325 27.8047 22.4041C27.8047 21.5757 27.1331 20.9041 26.3047 20.9041C25.4763 20.9041 24.8047 21.5757 24.8047 22.4041C24.8047 23.2325 25.4763 23.9041 26.3047 23.9041Z" fill="white"/>
<path d="M39.9308 16.1161C39.7028 18.1921 38.3588 20.8441 35.3108 22.6441L35.8148 23.1361C37.1708 22.2601 38.2988 21.1681 39.1268 19.9201C39.8348 21.0241 40.6748 22.0201 41.6468 22.7881L42.2228 22.2361C41.0708 21.4201 40.1588 20.4241 39.4988 19.3321C40.2068 18.1321 40.6148 16.8481 40.7108 15.5041C39.7388 15.5401 38.8268 15.5401 37.8788 15.5401H36.0068V16.1521H37.1948C38.1548 16.1521 38.9708 16.1521 39.9308 16.1161ZM43.9028 18.7441V14.5681H43.2308V25.4761H43.9028V19.3801H45.8708V18.7441H43.9028ZM46.5621 23.2081C47.7621 22.5361 49.0101 21.6241 50.0181 20.4241C50.6901 21.4201 51.4461 22.1161 52.3941 22.8721L52.9221 22.3441C51.9021 21.6361 51.0861 20.8681 50.4141 19.9201C51.1221 18.9481 51.6261 17.8441 51.7701 16.5601C50.8101 16.5961 49.8381 16.5961 48.9141 16.5961H46.7301V17.2081H48.2061C49.1541 17.2081 50.0541 17.2081 51.0141 17.1721C50.6301 19.1881 48.6981 21.4681 46.0581 22.7161L46.5621 23.2081ZM54.6021 18.9361V14.5681H53.9301V25.4761H54.6021V19.5601H56.5701V18.9361H54.6021ZM50.9661 14.8441H47.5581V15.4681H50.9661V14.8441ZM65.6373 20.6041H59.2653V18.5761H65.2533V15.3961H58.5933V16.0201H64.5573V17.9761H58.5693V21.2041H61.5693V23.3641H56.8773V23.9641H67.0053V23.3641H62.2893V21.2041H65.6373V20.6041ZM79.2841 25.4761V14.5681H78.6121V17.0401H75.7801C75.3121 15.8521 74.4601 15.2401 73.4041 15.2401C71.8801 15.2401 70.6801 16.5961 70.6801 19.1401C70.6801 21.6841 71.8801 23.0401 73.4041 23.0401C74.5201 23.0401 75.4441 22.3321 75.8641 20.9761H78.6121V25.4761H79.2841ZM75.4441 19.1401C75.4441 21.0961 74.7361 22.4401 73.4041 22.4401C72.0841 22.4401 71.3641 21.0961 71.3641 19.1401C71.3641 17.1841 72.0841 15.8401 73.4041 15.8401C74.7361 15.8401 75.4441 17.1841 75.4441 19.1401ZM76.1281 19.1401C76.1281 18.5761 76.0681 18.0841 75.9721 17.6401H78.6121V20.3761H76.0201C76.0921 20.0041 76.1281 19.5961 76.1281 19.1401ZM86.6113 25.5361C88.8793 25.5361 90.2233 24.7201 90.2233 23.6281C90.2233 22.5121 88.8673 21.7081 86.6113 21.7081C84.3553 21.7081 82.9993 22.5121 82.9993 23.6281C82.9993 24.7201 84.3073 25.5361 86.6113 25.5361ZM86.6113 24.9481C84.6913 24.9481 83.7313 24.2881 83.7313 23.6161C83.7313 22.9081 84.6913 22.2841 86.6113 22.2841C88.5313 22.2841 89.4913 22.9081 89.4913 23.6161C89.4913 24.2881 88.4833 24.9481 86.6113 24.9481ZM89.5993 14.5681V17.9041H87.9193V14.6881H87.2713V21.1201H87.9193V18.4801H89.5993V21.6001H90.2593V14.5681H89.5993ZM82.3513 19.0921C82.3513 18.3721 82.8433 17.7721 83.8873 17.7721C84.9313 17.7721 85.4233 18.3721 85.4233 19.0921C85.4233 19.8241 84.9313 20.4121 83.8873 20.4121C82.8433 20.4121 82.3513 19.8241 82.3513 19.0921ZM82.3633 15.1681H85.3393V14.5681H82.3633V15.1681ZM81.1273 16.5241H86.4673V15.9601H81.1273V16.5241ZM81.7033 19.0921C81.7033 20.1121 82.4473 20.9881 83.8873 20.9881C85.3273 20.9881 86.0713 20.1121 86.0713 19.0921C86.0713 18.0841 85.3273 17.2081 83.8873 17.2081C82.4473 17.2081 81.7033 18.0841 81.7033 19.0921Z" fill="white"/>
</g>
<defs>
<filter id="filter0_d_470_35868" x="0.704687" y="0.804114" width="103.2" height="40.2" filterUnits="userSpaceOnUse" color-interpolation-filters="sRGB">
<feFlood flood-opacity="0" result="BackgroundImageFix"/>
<feColorMatrix in="SourceAlpha" type="matrix" values="0 0 0 0 0 0 0 0 0 0 0 0 0 0 0 0 0 0 127 0" result="hardAlpha"/>
<feMorphology radius="0.1" operator="dilate" in="SourceAlpha" result="effect1_dropShadow_470_35868"/>
<feOffset/>
<feGaussianBlur stdDeviation="2"/>
<feComposite in2="hardAlpha" operator="out"/>
<feColorMatrix type="matrix" values="0 0 0 0 0 0 0 0 0 0 0 0 0 0 0 0 0 0 0.25 0"/>
<feBlend mode="normal" in2="BackgroundImageFix" result="effect1_dropShadow_470_35868"/>
<feBlend mode="normal" in="SourceGraphic" in2="effect1_dropShadow_470_35868" result="shape"/>
</filter>
</defs>
</svg>
