<svg width="104" height="41" viewBox="0 0 104 41" fill="none" xmlns="http://www.w3.org/2000/svg">
<g filter="url(#filter0_d_269_22853)">
<path d="M4.80469 20.7291C4.80469 11.8925 11.9681 4.72906 20.8047 4.72906H83.8047C92.6412 4.72906 99.8047 11.8925 99.8047 20.7291C99.8047 29.5656 92.6412 36.7291 83.8047 36.7291H20.8047C11.9681 36.7291 4.80469 29.5656 4.80469 20.7291Z" fill="#F9F9FA"/>
<path d="M28.7247 13.7391C28.5247 13.1491 27.9647 12.7291 27.3047 12.7291H16.3047C15.6447 12.7291 15.0947 13.1491 14.8847 13.7391L12.8047 19.7291V27.7291C12.8047 28.2791 13.2547 28.7291 13.8047 28.7291H14.8047C15.3547 28.7291 15.8047 28.2791 15.8047 27.7291V26.9291C15.8047 26.8186 15.8942 26.7291 16.0047 26.7291H27.6047C27.7151 26.7291 27.8047 26.8186 27.8047 26.9291V27.7291C27.8047 28.2791 28.2547 28.7291 28.8047 28.7291H29.8047C30.3547 28.7291 30.8047 28.2791 30.8047 27.7291V19.7291L28.7247 13.7391ZM16.6081 14.8636C16.636 14.783 16.7118 14.7291 16.797 14.7291H26.8023C26.8876 14.7291 26.9634 14.783 26.9913 14.8636L27.8926 17.4636C27.9377 17.5935 27.8412 17.7291 27.7037 17.7291H15.8957C15.7582 17.7291 15.6617 17.5935 15.7067 17.4636L16.6081 14.8636ZM28.8047 24.5291C28.8047 24.6395 28.7151 24.7291 28.6047 24.7291H15.0047C14.8942 24.7291 14.8047 24.6395 14.8047 24.5291V20.0691L14.9247 19.7291H28.6947L28.8047 20.0691V24.5291Z" fill="#535659"/>
<path d="M17.3047 23.7291C18.1331 23.7291 18.8047 23.0575 18.8047 22.2291C18.8047 21.4006 18.1331 20.7291 17.3047 20.7291C16.4763 20.7291 15.8047 21.4006 15.8047 22.2291C15.8047 23.0575 16.4763 23.7291 17.3047 23.7291Z" fill="#535659"/>
<path d="M26.3047 23.7291C27.1331 23.7291 27.8047 23.0575 27.8047 22.2291C27.8047 21.4006 27.1331 20.7291 26.3047 20.7291C25.4763 20.7291 24.8047 21.4006 24.8047 22.2291C24.8047 23.0575 25.4763 23.7291 26.3047 23.7291Z" fill="#535659"/>
<path d="M39.9308 15.9411C39.7028 18.0171 38.3588 20.6691 35.3108 22.4691L35.8148 22.9611C37.1708 22.0851 38.2988 20.9931 39.1268 19.7451C39.8348 20.8491 40.6748 21.8451 41.6468 22.6131L42.2228 22.0611C41.0708 21.2451 40.1588 20.2491 39.4988 19.1571C40.2068 17.9571 40.6148 16.6731 40.7108 15.3291C39.7388 15.3651 38.8268 15.3651 37.8788 15.3651H36.0068V15.9771H37.1948C38.1548 15.9771 38.9708 15.9771 39.9308 15.9411ZM43.9028 18.5691V14.3931H43.2308V25.3011H43.9028V19.2051H45.8708V18.5691H43.9028ZM46.5621 23.0331C47.7621 22.3611 49.0101 21.4491 50.0181 20.2491C50.6901 21.2451 51.4461 21.9411 52.3941 22.6971L52.9221 22.1691C51.9021 21.4611 51.0861 20.6931 50.4141 19.7451C51.1221 18.7731 51.6261 17.6691 51.7701 16.3851C50.8101 16.4211 49.8381 16.4211 48.9141 16.4211H46.7301V17.0331H48.2061C49.1541 17.0331 50.0541 17.0331 51.0141 16.9971C50.6301 19.0131 48.6981 21.2931 46.0581 22.5411L46.5621 23.0331ZM54.6021 18.7611V14.3931H53.9301V25.3011H54.6021V19.3851H56.5701V18.7611H54.6021ZM50.9661 14.6691H47.5581V15.2931H50.9661V14.6691ZM65.6373 20.4291H59.2653V18.4011H65.2533V15.2211H58.5933V15.8451H64.5573V17.8011H58.5693V21.0291H61.5693V23.1891H56.8773V23.7891H67.0053V23.1891H62.2893V21.0291H65.6373V20.4291ZM79.2841 25.3011V14.3931H78.6121V16.8651H75.7801C75.3121 15.6771 74.4601 15.0651 73.4041 15.0651C71.8801 15.0651 70.6801 16.4211 70.6801 18.9651C70.6801 21.5091 71.8801 22.8651 73.4041 22.8651C74.5201 22.8651 75.4441 22.1571 75.8641 20.8011H78.6121V25.3011H79.2841ZM75.4441 18.9651C75.4441 20.9211 74.7361 22.2651 73.4041 22.2651C72.0841 22.2651 71.3641 20.9211 71.3641 18.9651C71.3641 17.0091 72.0841 15.6651 73.4041 15.6651C74.7361 15.6651 75.4441 17.0091 75.4441 18.9651ZM76.1281 18.9651C76.1281 18.4011 76.0681 17.9091 75.9721 17.4651H78.6121V20.2011H76.0201C76.0921 19.8291 76.1281 19.4211 76.1281 18.9651ZM86.6113 25.3611C88.8793 25.3611 90.2233 24.5451 90.2233 23.4531C90.2233 22.3371 88.8673 21.5331 86.6113 21.5331C84.3553 21.5331 82.9993 22.3371 82.9993 23.4531C82.9993 24.5451 84.3073 25.3611 86.6113 25.3611ZM86.6113 24.7731C84.6913 24.7731 83.7313 24.1131 83.7313 23.4411C83.7313 22.7331 84.6913 22.1091 86.6113 22.1091C88.5313 22.1091 89.4913 22.7331 89.4913 23.4411C89.4913 24.1131 88.4833 24.7731 86.6113 24.7731ZM89.5993 14.3931V17.7291H87.9193V14.5131H87.2713V20.9451H87.9193V18.3051H89.5993V21.4251H90.2593V14.3931H89.5993ZM82.3513 18.9171C82.3513 18.1971 82.8433 17.5971 83.8873 17.5971C84.9313 17.5971 85.4233 18.1971 85.4233 18.9171C85.4233 19.6491 84.9313 20.2371 83.8873 20.2371C82.8433 20.2371 82.3513 19.6491 82.3513 18.9171ZM82.3633 14.9931H85.3393V14.3931H82.3633V14.9931ZM81.1273 16.3491H86.4673V15.7851H81.1273V16.3491ZM81.7033 18.9171C81.7033 19.9371 82.4473 20.8131 83.8873 20.8131C85.3273 20.8131 86.0713 19.9371 86.0713 18.9171C86.0713 17.9091 85.3273 17.0331 83.8873 17.0331C82.4473 17.0331 81.7033 17.9091 81.7033 18.9171Z" fill="#535659"/>
</g>
<defs>
<filter id="filter0_d_269_22853" x="0.704687" y="0.629065" width="103.2" height="40.2" filterUnits="userSpaceOnUse" color-interpolation-filters="sRGB">
<feFlood flood-opacity="0" result="BackgroundImageFix"/>
<feColorMatrix in="SourceAlpha" type="matrix" values="0 0 0 0 0 0 0 0 0 0 0 0 0 0 0 0 0 0 127 0" result="hardAlpha"/>
<feMorphology radius="0.1" operator="dilate" in="SourceAlpha" result="effect1_dropShadow_269_22853"/>
<feOffset/>
<feGaussianBlur stdDeviation="2"/>
<feComposite in2="hardAlpha" operator="out"/>
<feColorMatrix type="matrix" values="0 0 0 0 0 0 0 0 0 0 0 0 0 0 0 0 0 0 0.25 0"/>
<feBlend mode="normal" in2="BackgroundImageFix" result="effect1_dropShadow_269_22853"/>
<feBlend mode="normal" in="SourceGraphic" in2="effect1_dropShadow_269_22853" result="shape"/>
</filter>
</defs>
</svg>
