<svg width="45" height="44" viewBox="0 0 45 44" fill="none" xmlns="http://www.w3.org/2000/svg">
<circle cx="22.6367" cy="22" r="21" fill="#F9F9FA" stroke="#D8D9DF" stroke-width="2"/>
<path fill-rule="evenodd" clip-rule="evenodd" d="M20.2255 12.1299C18.8942 12.1299 17.8149 13.2092 17.8149 14.5405V15.1432H14.199C12.2019 15.1432 10.583 16.7621 10.583 18.7591V28.2542C10.583 30.2512 12.2019 31.8702 14.199 31.8702H31.0734C33.0704 31.8702 34.6893 30.2512 34.6893 28.2542V18.7591C34.6893 16.7621 33.0704 15.1432 31.0734 15.1432H27.4574V14.5405C27.4574 13.2092 26.3782 12.1299 25.0468 12.1299H20.2255ZM22.6362 19.7366C20.554 19.7366 18.866 21.4245 18.866 23.5067C18.866 25.5889 20.554 27.2769 22.6362 27.2769C24.7183 27.2769 26.4063 25.5889 26.4063 23.5067C26.4063 21.4245 24.7183 19.7366 22.6362 19.7366ZM16.4554 23.5067C16.4554 20.0932 19.2226 17.326 22.6362 17.326C26.0497 17.326 28.8169 20.0932 28.8169 23.5067C28.8169 26.9203 26.0497 29.6875 22.6362 29.6875C19.2226 29.6875 16.4554 26.9203 16.4554 23.5067Z" fill="#535659"/>
</svg>
