<svg width="36" height="25" viewBox="0 0 36 25" fill="none" xmlns="http://www.w3.org/2000/svg">
<path fill-rule="evenodd" clip-rule="evenodd" d="M23.9681 2.66662L17.7771 2.6665C17.7771 2.6665 17.7771 2.6665 17.7771 2.6665C12.5567 2.66653 8.32467 6.89853 8.32467 12.119V16.9901C8.32467 18.3315 7.82459 19.6247 6.92211 20.6171L6.16367 21.4511L23.9682 21.4512C29.1554 21.4512 33.3604 17.2461 33.3604 12.0589C33.3604 6.87169 29.1553 2.66662 23.9681 2.66662ZM1.31633 24.0587C0.9136 24.0587 0.702203 23.5807 0.973159 23.2828L4.9929 18.8626C5.45883 18.3503 5.717 17.6826 5.717 16.9901V12.119C5.717 5.45834 11.1165 0.0588379 17.7771 0.0588379L23.9682 0.0589573C30.5955 0.0589573 35.9681 5.43152 35.9681 12.0589C35.9681 18.6863 30.5955 24.0588 23.9682 24.0588L1.31633 24.0587Z" fill="#6D6CC1"/>
<path d="M25.7001 13.3625C24.98 13.3625 24.3962 12.7788 24.3962 12.0587C24.3962 11.3386 24.98 10.7549 25.7001 10.7549C26.4202 10.7549 27.0039 11.3386 27.0039 12.0587C27.0039 12.7788 26.4202 13.3625 25.7001 13.3625Z" fill="#6D6CC1"/>
<path d="M21.4071 13.3625C20.687 13.3625 20.1033 12.7788 20.1033 12.0587C20.1033 11.3386 20.687 10.7549 21.4071 10.7549C22.1272 10.7549 22.7109 11.3386 22.7109 12.0587C22.7109 12.7788 22.1272 13.3625 21.4071 13.3625Z" fill="#6D6CC1"/>
<path d="M17.1122 13.3625C16.3921 13.3625 15.8083 12.7788 15.8083 12.0587C15.8083 11.3386 16.3921 10.7549 17.1122 10.7549C17.8323 10.7549 18.416 11.3386 18.416 12.0587C18.416 12.7788 17.8323 13.3625 17.1122 13.3625Z" fill="#6D6CC1"/>
</svg>
