<svg width="28" height="25" viewBox="0 0 28 25" fill="none" xmlns="http://www.w3.org/2000/svg">
<path d="M20.4052 0.558838C18.019 0.558838 15.7287 1.66378 14.2338 3.40987C12.739 1.66378 10.4487 0.558838 8.06239 0.558838C3.83839 0.558838 0.519531 3.86003 0.519531 8.06155C0.519531 13.218 5.18239 17.4195 12.2452 23.8036C13.3735 24.8175 15.098 24.8081 16.2224 23.79C23.2852 17.4195 27.9481 13.218 27.9481 8.06155C27.9481 3.86003 24.6292 0.558838 20.4052 0.558838ZM14.371 21.7711C14.2952 21.8464 14.1724 21.8464 14.0967 21.7711C7.56867 15.8917 3.26239 12.0039 3.26239 8.06155C3.26239 5.33329 5.31953 3.2871 8.06239 3.2871C9.72948 3.2871 11.3624 4.12854 12.3339 5.40217C12.7994 6.01248 13.4661 6.50644 14.2363 6.50644C15.0108 6.50644 15.6802 6.00673 16.1478 5.39259C17.1134 4.12432 18.7423 3.2871 20.4052 3.2871C23.1481 3.2871 25.2052 5.33329 25.2052 8.06155C25.2052 12.0039 20.899 15.8917 14.371 21.7711Z" fill="#6D6CC1"/>
</svg>
