<svg width="38" height="37" viewBox="0 0 38 37" fill="none" xmlns="http://www.w3.org/2000/svg">
<path d="M37.3887 18.5C37.3887 28.7173 29.1059 37 18.8887 37C8.6714 37 0.388672 28.7173 0.388672 18.5C0.388672 8.28273 8.6714 0 18.8887 0C29.1059 0 37.3887 8.28273 37.3887 18.5Z" fill="#D8D9DF"/>
<path d="M28.8887 16.5586C28.8887 24.0786 20.4087 30.4413 18.8887 30.4413C17.3687 30.4413 8.88867 24.0786 8.88867 16.5586C8.88867 11.0357 13.3658 6.55859 18.8887 6.55859C24.4115 6.55859 28.8887 11.0357 28.8887 16.5586Z" fill="white"/>
<path d="M24.8887 16.5586C24.8887 19.8723 22.2024 22.5586 18.8887 22.5586C15.575 22.5586 12.8887 19.8723 12.8887 16.5586C12.8887 13.2449 15.575 10.5586 18.8887 10.5586C22.2024 10.5586 24.8887 13.2449 24.8887 16.5586Z" fill="#D8D9DF"/>
</svg>
