<svg width="49" height="45" viewBox="0 0 49 45" fill="none" xmlns="http://www.w3.org/2000/svg">
<g filter="url(#filter0_d_269_21684)">
<path d="M30.7256 10.824C28.3393 10.824 26.049 11.9289 24.5541 13.675C23.0593 11.9289 20.769 10.824 18.3827 10.824C14.1587 10.824 10.8398 14.1252 10.8398 18.3267C10.8398 23.4831 15.5027 27.6846 22.5656 34.0687C23.6938 35.0827 25.4183 35.0733 26.5427 34.0551C33.6056 27.6846 38.2684 23.4831 38.2684 18.3267C38.2684 14.1252 34.9496 10.824 30.7256 10.824Z" fill="#6D6CC1"/>
</g>
<path d="M30.7256 10.824C28.3393 10.824 26.049 11.9289 24.5541 13.675C23.0593 11.9289 20.769 10.824 18.3827 10.824C14.1587 10.824 10.8398 14.1252 10.8398 18.3267C10.8398 23.4831 15.5027 27.6846 22.5656 34.0687C23.6938 35.0827 25.4183 35.0733 26.5427 34.0551C33.6056 27.6846 38.2684 23.4831 38.2684 18.3267C38.2684 14.1252 34.9496 10.824 30.7256 10.824ZM24.6913 32.0362C24.6155 32.1115 24.4927 32.1115 24.417 32.0362C17.889 26.1568 13.5827 22.269 13.5827 18.3267C13.5827 15.5984 15.6398 13.5522 18.3827 13.5522C20.0498 13.5522 21.6827 14.3937 22.6542 15.6673C23.1197 16.2776 23.7864 16.7716 24.5566 16.7716C25.3311 16.7716 26.0005 16.2719 26.4681 15.6577C27.4338 14.3895 29.0627 13.5522 30.7256 13.5522C33.4684 13.5522 35.5256 15.5984 35.5256 18.3267C35.5256 22.269 31.2193 26.1568 24.6913 32.0362Z" fill="#6D6CC1"/>
<defs>
<filter id="filter0_d_269_21684" x="0.839844" y="0.823975" width="47.4277" height="44" filterUnits="userSpaceOnUse" color-interpolation-filters="sRGB">
<feFlood flood-opacity="0" result="BackgroundImageFix"/>
<feColorMatrix in="SourceAlpha" type="matrix" values="0 0 0 0 0 0 0 0 0 0 0 0 0 0 0 0 0 0 127 0" result="hardAlpha"/>
<feOffset/>
<feGaussianBlur stdDeviation="5"/>
<feComposite in2="hardAlpha" operator="out"/>
<feColorMatrix type="matrix" values="0 0 0 0 0 0 0 0 0 0 0 0 0 0 0 0 0 0 0.1 0"/>
<feBlend mode="normal" in2="BackgroundImageFix" result="effect1_dropShadow_269_21684"/>
<feBlend mode="normal" in="SourceGraphic" in2="effect1_dropShadow_269_21684" result="shape"/>
</filter>
</defs>
</svg>
