<svg width="180" height="180" viewBox="0 0 180 180" fill="none" xmlns="http://www.w3.org/2000/svg">
<circle cx="90" cy="90" r="90" fill="#F9F9FA"/>
<path d="M50.6287 137.213C50.7985 133.214 51.2362 126.43 52.3642 118.02C52.833 114.525 53.4413 110.666 54.088 106.855C56.2677 94.0075 67.1165 84.9141 79.5964 84.9141H100.404C112.884 84.9141 123.732 94.0075 125.912 106.855C126.559 110.666 127.167 114.525 127.636 118.02C128.764 126.43 129.202 133.214 129.371 137.213C129.464 139.397 127.784 141.164 125.693 141.164H54.3069C52.216 141.164 50.5359 139.397 50.6287 137.213Z" fill="#CDCDDE"/>
<circle r="20.898" transform="matrix(1 0 0 -1 89.9972 59.7348)" fill="#CDCDDE"/>
</svg>
