<svg width="41" height="44" viewBox="0 0 41 44" fill="none" xmlns="http://www.w3.org/2000/svg">
<rect x="2.53516" width="36.0009" height="24" rx="12" fill="#6D6CC1"/>
<path d="M16.5834 6C14.9126 6 13.5593 7.3425 13.5593 9C13.5593 10.6575 14.9126 12 16.5834 12C18.2542 12 19.6075 10.6575 19.6075 9C19.6075 7.3425 18.2542 6 16.5834 6ZM16.5834 12.75C14.5648 12.75 10.5352 13.755 10.5352 15.75V17C10.5352 17.5523 10.9829 18 11.5352 18H21.6316C22.1839 18 22.6316 17.5523 22.6316 17V15.75C22.6316 13.755 18.602 12.75 16.5834 12.75Z" fill="white"/>
<path fill-rule="evenodd" clip-rule="evenodd" d="M25.9547 12.6V15.9203H27.2047V12.6H30.536V11.4H27.2047V8.08008H25.9547V11.4H22.6328V12.6H25.9547Z" fill="white"/>
<path d="M4.97833 29.996V29.144H11.1463V29.996H4.97833ZM6.05833 32.984L6.03433 30.44H7.03033L7.05433 32.984H8.20633C8.51833 32.984 8.83033 32.984 9.14233 32.972L9.17833 30.44H10.1743L10.1383 32.912C10.7263 32.852 11.2903 32.78 11.8183 32.672V33.5C10.7983 33.764 9.50233 33.836 8.21833 33.836H4.75033V32.984H6.05833ZM15.0703 32H13.3423V34.124H12.3103V28.64H13.3423V31.088H15.0703V32ZM13.5823 39.476H6.53833V36.608H12.3223V35.624H6.53833V34.748H13.3423V37.46H7.55833V38.6H13.5823V39.476ZM17.1175 35.216V31.904H22.9375V30.32H17.1055V29.42H23.9695V32.756H18.1495V34.34H24.3295V35.216H21.0775V37.172H25.6375V38.048H15.4375V37.172H19.9975V35.216H17.1175ZM34.2248 28.64H35.2568V35.084H34.2248V28.64ZM35.3048 37.412C35.3048 38.72 34.1048 39.692 31.7528 39.692C29.4008 39.692 28.2008 38.708 28.2008 37.4C28.2008 36.092 29.4008 35.12 31.7528 35.12C34.1048 35.12 35.3048 36.104 35.3048 37.412ZM34.2248 37.4C34.2248 36.668 33.4688 35.996 31.7528 35.996C30.0608 35.996 29.2688 36.668 29.2688 37.4C29.2688 38.144 30.0608 38.804 31.7528 38.804C33.4688 38.804 34.2248 38.144 34.2248 37.4ZM29.4248 28.88C31.0208 28.88 32.1968 29.972 32.1968 31.592C32.1968 33.224 31.0208 34.316 29.4248 34.316C27.8168 34.316 26.6408 33.224 26.6408 31.592C26.6408 29.972 27.8168 28.88 29.4248 28.88ZM29.4128 29.756C28.3808 29.756 27.6728 30.5 27.6728 31.592C27.6728 32.708 28.3808 33.44 29.4128 33.44C30.4568 33.44 31.1648 32.708 31.1648 31.592C31.1648 30.5 30.4568 29.756 29.4128 29.756Z" fill="#6D6CC1"/>
</svg>
