<svg width="25" height="24" viewBox="0 0 25 24" fill="none" xmlns="http://www.w3.org/2000/svg">
<path fill-rule="evenodd" clip-rule="evenodd" d="M6.75 7C6.75 6.58579 7.08579 6.25 7.5 6.25H17.5C17.9142 6.25 18.25 6.58579 18.25 7C18.25 7.41421 17.9142 7.75 17.5 7.75H7.5C7.08579 7.75 6.75 7.41421 6.75 7Z" fill="#535659"/>
<path fill-rule="evenodd" clip-rule="evenodd" d="M6.75 12C6.75 11.5858 7.08579 11.25 7.5 11.25H17.5C17.9142 11.25 18.25 11.5858 18.25 12C18.25 12.4142 17.9142 12.75 17.5 12.75H7.5C7.08579 12.75 6.75 12.4142 6.75 12Z" fill="#535659"/>
<path fill-rule="evenodd" clip-rule="evenodd" d="M6.75 17C6.75 16.5858 7.08579 16.25 7.5 16.25H17.5C17.9142 16.25 18.25 16.5858 18.25 17C18.25 17.4142 17.9142 17.75 17.5 17.75H7.5C7.08579 17.75 6.75 17.4142 6.75 17Z" fill="#535659"/>
<path fill-rule="evenodd" clip-rule="evenodd" d="M19.5 1.5H5.5C3.567 1.5 2 3.067 2 5V19C2 20.933 3.567 22.5 5.5 22.5H19.5C21.433 22.5 23 20.933 23 19V5C23 3.067 21.433 1.5 19.5 1.5ZM5.5 0C2.73858 0 0.5 2.23858 0.5 5V19C0.5 21.7614 2.73858 24 5.5 24H19.5C22.2614 24 24.5 21.7614 24.5 19V5C24.5 2.23858 22.2614 0 19.5 0H5.5Z" fill="#535659"/>
</svg>
