<svg width="61" height="61" viewBox="0 0 61 61" fill="none" xmlns="http://www.w3.org/2000/svg">
<path d="M60.8887 30.0906C60.8887 46.6591 47.4572 60.0906 30.8887 60.0906C14.3201 60.0906 0.888672 46.6591 0.888672 30.0906C0.888672 13.522 14.3201 0.0905762 30.8887 0.0905762C47.4572 0.0905762 60.8887 13.522 60.8887 30.0906Z" fill="#FFB3A3"/>
<path d="M25.7974 31.2365L30.3866 26.6473L19.0028 15.2798C16.473 17.8095 16.473 21.9122 19.0028 24.4581L25.7974 31.2365ZM36.792 28.3014C39.273 29.4527 42.7595 28.6419 45.3379 26.0635C48.4352 22.9662 49.0352 18.523 46.6514 16.1392C44.2838 13.7717 39.8406 14.3554 36.7271 17.4527C34.1487 20.0311 33.3379 23.5176 34.4893 25.9987L18.6622 41.8257L20.9487 44.1122L32.1217 32.9717L43.2784 44.1284L45.5649 41.8419L34.4082 30.6852L36.792 28.3014Z" fill="white"/>
</svg>
