<svg width="40" height="44" viewBox="0 0 40 44" fill="none" xmlns="http://www.w3.org/2000/svg">
<rect x="2" width="36.0009" height="24" rx="12" fill="#D8D9DF"/>
<path d="M16.0482 6C14.3774 6 13.0241 7.3425 13.0241 9C13.0241 10.6575 14.3774 12 16.0482 12C17.7191 12 19.0724 10.6575 19.0724 9C19.0724 7.3425 17.7191 6 16.0482 6ZM16.0482 12.75C14.0296 12.75 10 13.755 10 15.75V17C10 17.5523 10.4477 18 11 18H21.0965C21.6488 18 22.0965 17.5523 22.0965 17V15.75C22.0965 13.755 18.0668 12.75 16.0482 12.75Z" fill="white"/>
<path fill-rule="evenodd" clip-rule="evenodd" d="M25.4196 12.6V15.9203H26.6696V12.6H30.0009V11.4H26.6696V8.08008H25.4196V11.4H22.0977V12.6H25.4196Z" fill="white"/>
<path d="M4.44317 29.996V29.144H10.6112V29.996H4.44317ZM5.52317 32.984L5.49917 30.44H6.49517L6.51917 32.984H7.67117C7.98317 32.984 8.29517 32.984 8.60717 32.972L8.64317 30.44H9.63917L9.60317 32.912C10.1912 32.852 10.7552 32.78 11.2832 32.672V33.5C10.2632 33.764 8.96717 33.836 7.68317 33.836H4.21517V32.984H5.52317ZM14.5352 32H12.8072V34.124H11.7752V28.64H12.8072V31.088H14.5352V32ZM13.0472 39.476H6.00317V36.608H11.7872V35.624H6.00317V34.748H12.8072V37.46H7.02317V38.6H13.0472V39.476ZM16.5824 35.216V31.904H22.4024V30.32H16.5704V29.42H23.4344V32.756H17.6144V34.34H23.7944V35.216H20.5424V37.172H25.1024V38.048H14.9024V37.172H19.4624V35.216H16.5824ZM25.6016 35.684V34.808H35.8016V35.684H31.3376V39.536H30.2816V35.684H25.6016ZM34.4216 31.292C34.4216 32.564 33.1616 33.692 30.7736 33.692C28.3856 33.692 27.1256 32.564 27.1256 31.292C27.1256 30.02 28.3856 28.868 30.7736 28.868C33.1616 28.868 34.4216 30.02 34.4216 31.292ZM33.3056 31.292C33.3056 30.536 32.5736 29.768 30.7736 29.768C28.9736 29.768 28.2416 30.536 28.2416 31.292C28.2416 32.048 28.9736 32.792 30.7736 32.792C32.5736 32.792 33.3056 32.048 33.3056 31.292Z" fill="#8A9196"/>
</svg>
