<svg width="61" height="55" viewBox="0 0 61 55" fill="none" xmlns="http://www.w3.org/2000/svg">
<path d="M54.3842 6.63555H44.9376L39.4842 0.675537H21.6042L16.1508 6.63555H6.70415C3.42614 6.63555 0.744141 9.31755 0.744141 12.5956V48.3556C0.744141 51.6336 3.42614 54.3156 6.70415 54.3156H54.3842C57.6622 54.3156 60.3442 51.6336 60.3442 48.3556V12.5956C60.3442 9.31755 57.6622 6.63555 54.3842 6.63555ZM54.3842 48.3556H6.70415V12.5956H18.7732L24.2266 6.63555H36.8618L42.3152 12.5956H54.3842V48.3556Z" fill="#8A9196"/>
<path d="M28.3091 39.4156L21.6041 30.4756L12.6641 42.3956H48.4241L37.2491 27.4956L28.3091 39.4156Z" fill="#8A9196"/>
</svg>
