<svg width="29" height="29" viewBox="0 0 29 29" fill="none" xmlns="http://www.w3.org/2000/svg">
<path d="M20.2034 11.9543C21.0606 11.9543 21.7555 11.2594 21.7555 10.4022C21.7555 9.54499 21.0606 8.8501 20.2034 8.8501C19.3463 8.8501 18.6514 9.54499 18.6514 10.4022C18.6514 11.2594 19.3463 11.9543 20.2034 11.9543Z" fill="#8A9196"/>
<path d="M9.19563 11.9543C10.0528 11.9543 10.7477 11.2594 10.7477 10.4022C10.7477 9.54499 10.0528 8.8501 9.19563 8.8501C8.33844 8.8501 7.64355 9.54499 7.64355 10.4022C7.64355 11.2594 8.33844 11.9543 9.19563 11.9543Z" fill="#8A9196"/>
<path fill-rule="evenodd" clip-rule="evenodd" d="M7.16768 15.9334C7.68217 15.7326 8.26202 15.9869 8.4628 16.5014C9.43823 19.0009 11.8633 20.7649 14.6992 20.7649C17.5351 20.7649 19.9602 19.0009 20.9356 16.5014C21.1364 15.9869 21.7163 15.7326 22.2308 15.9334C22.7453 16.1341 22.9996 16.714 22.7988 17.2285C21.5342 20.4689 18.3873 22.7649 14.6992 22.7649C11.0111 22.7649 7.86421 20.4689 6.59964 17.2285C6.39886 16.714 6.65318 16.1341 7.16768 15.9334ZM14.6852 2.06494C8.06439 2.06494 2.69922 7.4389 2.69922 14.0649C2.69922 20.691 8.06439 26.0649 14.6852 26.0649C21.3239 26.0649 26.6992 20.6871 26.6992 14.0649C26.6992 7.44281 21.3239 2.06494 14.6852 2.06494ZM0.699219 14.0649C0.699219 6.33694 6.95722 0.0649414 14.6852 0.0649414C22.4272 0.0649414 28.6992 6.33694 28.6992 14.0649C28.6992 21.7929 22.4272 28.0649 14.6852 28.0649C6.95722 28.0649 0.699219 21.7929 0.699219 14.0649Z" fill="#8A9196"/>
</svg>
