<svg width="57" height="57" viewBox="0 0 57 57" fill="none" xmlns="http://www.w3.org/2000/svg">
<path d="M39.1628 23.8755C40.8771 23.8755 42.2669 22.4828 42.2669 20.7649C42.2669 19.047 40.8771 17.6543 39.1628 17.6543C37.4484 17.6543 36.0586 19.047 36.0586 20.7649C36.0586 22.4828 37.4484 23.8755 39.1628 23.8755Z" fill="#6D6CC1"/>
<path d="M17.1471 23.8755C18.8615 23.8755 20.2513 22.4828 20.2513 20.7649C20.2513 19.047 18.8615 17.6543 17.1471 17.6543C15.4327 17.6543 14.043 19.047 14.043 20.7649C14.043 22.4828 15.4327 23.8755 17.1471 23.8755Z" fill="#6D6CC1"/>
<path fill-rule="evenodd" clip-rule="evenodd" d="M13.0912 31.8504C14.1202 31.448 15.2799 31.9577 15.6815 32.9888C17.6323 37.9983 22.4825 41.5336 28.1543 41.5336C33.8261 41.5336 38.6763 37.9983 40.6271 32.9888C41.0287 31.9577 42.1884 31.448 43.2174 31.8504C44.2464 32.2528 44.755 33.4149 44.3535 34.446C41.8243 40.9404 35.5305 45.5419 28.1543 45.5419C20.7781 45.5419 14.4843 40.9404 11.9551 34.446C11.5536 33.4149 12.0622 32.2528 13.0912 31.8504ZM28.1263 4.05592C14.8846 4.05592 4.1543 14.8262 4.1543 28.1058C4.1543 41.3854 14.8846 52.1556 28.1263 52.1556C41.4038 52.1556 52.1543 41.3775 52.1543 28.1058C52.1543 14.834 41.4038 4.05592 28.1263 4.05592ZM0.154297 28.1058C0.154297 12.6177 12.6703 0.0476074 28.1263 0.0476074C43.6103 0.0476074 56.1543 12.6177 56.1543 28.1058C56.1543 43.5939 43.6103 56.1639 28.1263 56.1639C12.6703 56.1639 0.154297 43.5939 0.154297 28.1058Z" fill="#6D6CC1"/>
</svg>
