<svg width="29" height="29" viewBox="0 0 29 29" fill="none" xmlns="http://www.w3.org/2000/svg">
<path d="M20.4408 11.9369C21.2979 11.9369 21.9928 11.242 21.9928 10.3848C21.9928 9.52765 21.2979 8.83276 20.4408 8.83276C19.5836 8.83276 18.8887 9.52765 18.8887 10.3848C18.8887 11.242 19.5836 11.9369 20.4408 11.9369Z" fill="#6D6CC1"/>
<path d="M9.43294 11.9369C10.2901 11.9369 10.985 11.242 10.985 10.3848C10.985 9.52765 10.2901 8.83276 9.43294 8.83276C8.57575 8.83276 7.88086 9.52765 7.88086 10.3848C7.88086 11.242 8.57575 11.9369 9.43294 11.9369Z" fill="#6D6CC1"/>
<path fill-rule="evenodd" clip-rule="evenodd" d="M7.40596 15.916C7.92045 15.7152 8.5003 15.9696 8.70108 16.4841C9.67651 18.9836 12.1016 20.7476 14.9375 20.7476C17.7734 20.7476 20.1985 18.9836 21.1739 16.4841C21.3747 15.9696 21.9545 15.7152 22.469 15.916C22.9835 16.1168 23.2379 16.6967 23.0371 17.2111C21.7725 20.4516 18.6256 22.7476 14.9375 22.7476C11.2494 22.7476 8.10249 20.4516 6.83792 17.2111C6.63714 16.6967 6.89146 16.1168 7.40596 15.916ZM14.9235 2.04761C8.30267 2.04761 2.9375 7.42157 2.9375 14.0476C2.9375 20.6736 8.30267 26.0476 14.9235 26.0476C21.5622 26.0476 26.9375 20.6697 26.9375 14.0476C26.9375 7.42548 21.5622 2.04761 14.9235 2.04761ZM0.9375 14.0476C0.9375 6.31961 7.1955 0.0476074 14.9235 0.0476074C22.6655 0.0476074 28.9375 6.31961 28.9375 14.0476C28.9375 21.7756 22.6655 28.0476 14.9235 28.0476C7.1955 28.0476 0.9375 21.7756 0.9375 14.0476Z" fill="#6D6CC1"/>
</svg>
