<svg width="31" height="29" viewBox="0 0 31 29" fill="none" xmlns="http://www.w3.org/2000/svg">
<path d="M15.496 0.157227C7.08053 0.157227 0.259766 5.5491 0.259766 12.2041C0.259766 16.5381 3.14912 20.3274 7.49104 22.451C7.17526 23.6431 6.33846 26.7614 6.17267 27.4324C5.96742 28.2613 6.48056 28.2534 6.81212 28.0245C7.07264 27.8508 10.9883 25.1904 12.6777 24.0378C13.5934 24.172 14.5407 24.2431 15.5039 24.2431C23.9193 24.2431 30.7401 18.8512 30.7401 12.1962C30.7401 5.5491 23.9114 0.157227 15.496 0.157227Z" fill="#391B1B"/>
<path d="M9.37054 8.65161H4.91021C4.4918 8.65161 4.15234 8.99107 4.15234 9.40947C4.15234 9.82788 4.4918 10.1673 4.91021 10.1673H6.36278V15.504C6.36278 15.7013 6.44172 15.8908 6.58382 16.025C6.71802 16.1592 6.90749 16.2381 7.10485 16.2381H7.27063C7.46799 16.2381 7.65746 16.1592 7.79166 16.025C7.93376 15.8829 8.01271 15.6934 8.01271 15.504V10.1673H9.37844C9.79684 10.1673 10.1363 9.82788 10.1363 9.40947C10.1284 8.99107 9.78895 8.65161 9.37054 8.65161Z" fill="#FAE300"/>
<path d="M20.0776 14.8251H18.0092V9.37009C18.0092 8.91222 17.6382 8.54907 17.1882 8.54907C16.7303 8.54907 16.3672 8.92011 16.3672 9.37009V15.2435C16.3672 15.2909 16.3751 15.3304 16.383 15.3777C16.3751 15.4172 16.3672 15.4646 16.3672 15.5119C16.3672 15.8909 16.6751 16.1988 17.054 16.1988H20.0855C20.4644 16.1988 20.7723 15.8909 20.7723 15.5119C20.7644 15.133 20.4565 14.8251 20.0776 14.8251Z" fill="#FAE300"/>
<path d="M26.6994 15.0698L24.3864 12.0384L26.4705 9.95428C26.7547 9.67008 26.7547 9.2122 26.4705 8.928C26.1863 8.64381 25.7284 8.64381 25.4442 8.928L22.8627 11.5095V9.37009C22.8627 8.91222 22.4917 8.54907 22.0417 8.54907C21.5838 8.54907 21.2207 8.92011 21.2207 9.37009V15.4251C21.2207 15.883 21.5917 16.2461 22.0417 16.2461C22.4996 16.2461 22.8627 15.8751 22.8627 15.4251V13.5541L23.3285 13.0884L25.5153 15.954C25.76 16.2777 26.2179 16.3487 26.5415 16.104C26.881 15.8593 26.9441 15.4014 26.6994 15.0698Z" fill="#FAE300"/>
<path d="M15.7421 15.2673L13.5238 9.1886L13.5159 9.18071C13.3738 8.80967 12.9633 8.54126 12.4739 8.54126C11.9291 8.54126 11.4871 8.87282 11.3923 9.30702C11.3765 9.33859 11.3607 9.37017 11.3528 9.40964L9.17399 15.2673C9.03978 15.6541 9.24504 16.0725 9.62397 16.2067C10.0108 16.3409 10.4292 16.1357 10.5634 15.7567L10.9423 14.6752H13.9817L14.3606 15.7567C14.4948 16.1436 14.9132 16.3409 15.3 16.2067C15.679 16.0725 15.8763 15.6541 15.7421 15.2673ZM11.4239 13.3016L12.4423 10.3885C12.4502 10.3885 12.466 10.3885 12.4739 10.3885L13.4922 13.3016H11.4239Z" fill="#FAE300"/>
</svg>
