<svg width="42" height="47" viewBox="0 0 42 47" fill="none" xmlns="http://www.w3.org/2000/svg">
<g filter="url(#filter0_d_269_22675)">
<path d="M30.2547 21.038C30.2547 15.062 25.6947 11.198 20.6547 11.198C15.6147 11.198 11.0547 15.062 11.0547 21.038C11.0547 25.022 14.2587 29.738 20.6547 35.198C27.0507 29.738 30.2547 25.022 30.2547 21.038Z" fill="#BCE1E6"/>
<path d="M20.3301 35.5783L20.6547 35.8554L20.9793 35.5783C24.1968 32.8317 26.6325 30.2548 28.267 27.8452C29.9004 25.4372 30.7547 23.1648 30.7547 21.038C30.7547 14.7706 25.9553 10.698 20.6547 10.698C15.3541 10.698 10.5547 14.7706 10.5547 21.038C10.5547 23.1648 11.409 25.4372 13.0424 27.8452C14.6769 30.2548 17.1126 32.8317 20.3301 35.5783Z" stroke="white"/>
</g>
<ellipse cx="20.6543" cy="21.1418" rx="7" ry="7" fill="white"/>
<path d="M21.7452 16.6016L19.4434 19.4166L20.1252 20.2516L21.7452 18.2666L24.4725 21.6016H19.8579L17.6707 18.9166L14.6543 22.6016H26.6543L21.7452 16.6016ZM16.8361 21.6016L17.6652 20.5866L18.4943 21.6016H16.8361Z" fill="#BCE1E6"/>
<defs>
<filter id="filter0_d_269_22675" x="0.0546875" y="0.197998" width="41.1992" height="46.3147" filterUnits="userSpaceOnUse" color-interpolation-filters="sRGB">
<feFlood flood-opacity="0" result="BackgroundImageFix"/>
<feColorMatrix in="SourceAlpha" type="matrix" values="0 0 0 0 0 0 0 0 0 0 0 0 0 0 0 0 0 0 127 0" result="hardAlpha"/>
<feOffset/>
<feGaussianBlur stdDeviation="5"/>
<feComposite in2="hardAlpha" operator="out"/>
<feColorMatrix type="matrix" values="0 0 0 0 0 0 0 0 0 0 0 0 0 0 0 0 0 0 0.25 0"/>
<feBlend mode="normal" in2="BackgroundImageFix" result="effect1_dropShadow_269_22675"/>
<feBlend mode="normal" in="SourceGraphic" in2="effect1_dropShadow_269_22675" result="shape"/>
</filter>
</defs>
</svg>
