<svg width="159" height="158" viewBox="0 0 159 158" fill="none" xmlns="http://www.w3.org/2000/svg">
    <path d="M97.1098 119.312L120.018 119.312L120.018 96.4037L45.2996 44.5935L97.1098 119.312Z" fill="#5D5BBA"/>
    <path fill-rule="evenodd" clip-rule="evenodd" d="M124.988 104.108C120.745 105.004 116.512 103.244 113.118 100.545L53.2584 51.1454C52.3238 50.3741 51.0793 51.6186 51.8506 52.5532L101.262 112.425C104.012 115.885 105.784 120.216 104.815 124.528C103.745 129.292 101.425 133.728 97.7994 137.353C86.7035 148.449 67.5866 147.399 55.2018 135.015C49.0642 128.877 45.6235 120.92 45.2015 113.231L41.4542 44.9616C41.3236 42.5827 43.2885 40.6178 45.6674 40.7483L113.937 44.4957C121.735 45.0273 129.473 48.2488 135.721 54.496C148.105 66.8807 149.155 85.9977 138.059 97.0936C134.438 100.714 129.895 103.072 124.988 104.108Z" fill="url(#paint0_linear_231_21488)"/>
    <defs>
        <linearGradient id="paint0_linear_231_21488" x1="117.929" y1="117.223" x2="41.2095" y2="40.5036" gradientUnits="userSpaceOnUse">
            <stop stop-color="#706FC3"/>
            <stop offset="1" stop-color="#B8B2EB"/>
        </linearGradient>
    </defs>
</svg>