<svg width="20" height="25" viewBox="0 0 20 25" fill="none" xmlns="http://www.w3.org/2000/svg">
<path d="M9.97695 1.46143C14.7564 1.46143 19.077 5.11687 19.077 10.8014C19.077 12.6268 18.3547 14.6651 16.8412 16.9291C15.3289 19.1914 13.0462 21.6489 9.97695 24.3023C6.90769 21.6489 4.62504 19.1914 3.1127 16.9291C1.59917 14.6651 0.876953 12.6268 0.876953 10.8014C0.876953 5.11687 5.19754 1.46143 9.97695 1.46143ZM9.97695 24.3027C9.97735 24.3028 9.97792 24.3031 9.97856 24.3037C9.97813 24.3033 9.9777 24.3029 9.97726 24.3025C9.97762 24.3024 9.9776 24.3025 9.97695 24.3025C9.97631 24.3025 9.97629 24.3024 9.97664 24.3025C9.97621 24.3029 9.97578 24.3033 9.97534 24.3037C9.97599 24.3031 9.97656 24.3028 9.97695 24.3027Z" stroke="white"/>
<circle cx="9.97656" cy="9.8291" r="4" fill="white"/>
</svg>
