<svg width="27" height="24" viewBox="0 0 27 24" fill="none" xmlns="http://www.w3.org/2000/svg">
<path fill-rule="evenodd" clip-rule="evenodd" d="M24.265 0.335717C25.1386 0.0102497 26.0687 0.656315 26.0687 1.5886V19.8799C26.0687 20.7496 25.5081 21.5203 24.6806 21.788L18.0441 23.9351C17.7911 24.0169 17.5194 24.0215 17.2638 23.9481L9.32285 21.6694C9.05926 21.5938 8.77878 21.601 8.51944 21.6902L2.70328 23.6895C1.83529 23.9879 0.931641 23.343 0.931641 22.4251V4.42435C0.931641 3.60166 1.43407 2.86242 2.19901 2.55962L8.42823 0.0938512C8.71961 -0.0214886 9.04225 -0.0308111 9.3398 0.0675113L17.1849 2.65982C17.4736 2.75522 17.7862 2.74936 18.0712 2.64321L24.265 0.335717ZM16.9757 4.48195C16.9757 4.19357 16.7908 3.93769 16.517 3.84721L10.0074 1.69621C9.79112 1.62474 9.56828 1.7858 9.56828 2.01358V19.8453C9.56828 20.1434 9.76577 20.4056 10.0524 20.4878L16.5493 22.3522C16.7629 22.4135 16.9757 22.2531 16.9757 22.0309V4.48195ZM18.3127 21.9835C18.3127 22.2104 18.534 22.3714 18.7499 22.3015L24.5004 20.4411C24.6383 20.3964 24.7317 20.268 24.7317 20.123V2.06981C24.7317 1.83674 24.4992 1.67523 24.2808 1.75659L18.5303 3.89893C18.3995 3.94766 18.3127 4.07256 18.3127 4.21215V21.9835ZM8.00569 20.453C8.14066 20.4066 8.23128 20.2796 8.23128 20.1369V2.10154C8.23128 1.86558 7.9934 1.70391 7.77401 1.79075L3.11355 3.63555C2.60359 3.83741 2.26864 4.33024 2.26864 4.87869V21.9568C2.26864 22.1863 2.49455 22.3475 2.71155 22.2729L8.00569 20.453Z" fill="#535659"/>
</svg>
