<svg width="57" height="57" viewBox="0 0 57 57" fill="none" xmlns="http://www.w3.org/2000/svg">
<path d="M39.862 23.8755C41.5763 23.8755 42.9661 22.4828 42.9661 20.7649C42.9661 19.047 41.5763 17.6543 39.862 17.6543C38.1476 17.6543 36.7578 19.047 36.7578 20.7649C36.7578 22.4828 38.1476 23.8755 39.862 23.8755Z" fill="#6D6CC1"/>
<path d="M17.8463 23.8755C19.5607 23.8755 20.9505 22.4828 20.9505 20.7649C20.9505 19.047 19.5607 17.6543 17.8463 17.6543C16.132 17.6543 14.7422 19.047 14.7422 20.7649C14.7422 22.4828 16.132 23.8755 17.8463 23.8755Z" fill="#6D6CC1"/>
<path fill-rule="evenodd" clip-rule="evenodd" d="M16.2633 36.77C16.2633 35.6631 17.1587 34.7658 18.2633 34.7658H38.9206C40.0252 34.7658 40.9206 35.6631 40.9206 36.77C40.9206 37.8768 40.0252 38.7741 38.9206 38.7741H18.2633C17.1587 38.7741 16.2633 37.8768 16.2633 36.77ZM28.8255 4.05592C15.5839 4.05592 4.85352 14.8262 4.85352 28.1058C4.85352 41.3854 15.5839 52.1556 28.8255 52.1556C42.103 52.1556 52.8535 41.3775 52.8535 28.1058C52.8535 14.834 42.103 4.05592 28.8255 4.05592ZM0.853516 28.1058C0.853516 12.6177 13.3695 0.0476074 28.8255 0.0476074C44.3095 0.0476074 56.8535 12.6177 56.8535 28.1058C56.8535 43.5939 44.3095 56.1639 28.8255 56.1639C13.3695 56.1639 0.853516 43.5939 0.853516 28.1058Z" fill="#6D6CC1"/>
</svg>
