<svg width="29" height="29" viewBox="0 0 29 29" fill="none" xmlns="http://www.w3.org/2000/svg">
<path d="M19.5443 11.9369C20.4015 11.9369 21.0963 11.242 21.0963 10.3848C21.0963 9.52765 20.4015 8.83276 19.5443 8.83276C18.6871 8.83276 17.9922 9.52765 17.9922 10.3848C17.9922 11.242 18.6871 11.9369 19.5443 11.9369Z" fill="#6D6CC1"/>
<path d="M8.53645 11.9369C9.39364 11.9369 10.0885 11.242 10.0885 10.3848C10.0885 9.52765 9.39364 8.83276 8.53645 8.83276C7.67926 8.83276 6.98438 9.52765 6.98438 10.3848C6.98438 11.242 7.67926 11.9369 8.53645 11.9369Z" fill="#6D6CC1"/>
<path fill-rule="evenodd" clip-rule="evenodd" d="M7.74589 18.3707C7.74589 17.8184 8.19361 17.3707 8.74589 17.3707H19.0746C19.6269 17.3707 20.0746 17.8184 20.0746 18.3707C20.0746 18.923 19.6269 19.3707 19.0746 19.3707H8.74589C8.19361 19.3707 7.74589 18.923 7.74589 18.3707ZM14.027 2.04761C7.40619 2.04761 2.04102 7.42157 2.04102 14.0476C2.04102 20.6736 7.40619 26.0476 14.027 26.0476C20.6657 26.0476 26.041 20.6697 26.041 14.0476C26.041 7.42548 20.6657 2.04761 14.027 2.04761ZM0.0410156 14.0476C0.0410156 6.31961 6.29902 0.0476074 14.027 0.0476074C21.769 0.0476074 28.041 6.31961 28.041 14.0476C28.041 21.7756 21.769 28.0476 14.027 28.0476C6.29902 28.0476 0.0410156 21.7756 0.0410156 14.0476Z" fill="#6D6CC1"/>
</svg>
