<svg width="25" height="25" viewBox="0 0 25 25" fill="none" xmlns="http://www.w3.org/2000/svg">
<path fill-rule="evenodd" clip-rule="evenodd" d="M2.09408 17.6298L1.54327 21.948C1.4916 22.3531 1.83636 22.6979 2.24142 22.6462L6.55966 22.0954L23.2286 5.42644L23.2402 4.7669C23.2826 2.36994 21.1219 0.533176 18.763 0.960866L2.09408 17.6298ZM3.2131 18.7232L2.88368 21.3058L5.46627 20.9763C4.95472 20.0197 4.16979 19.2347 3.2131 18.7232ZM3.84419 17.6452L17.724 3.76536C18.9173 4.3129 19.8766 5.27212 20.4241 6.46546L6.5443 20.3453C5.92372 19.2044 4.98505 18.2657 3.84419 17.6452ZM21.3539 5.53566L21.9893 4.90025L21.9921 4.74486C22.0183 3.25618 20.7791 2.0893 19.3396 2.14976L18.6538 2.83555C19.7947 3.45613 20.7333 4.3948 21.3539 5.53566Z" fill="#535659"/>
</svg>
