<svg width="17" height="17" viewBox="0 0 17 17" fill="none" xmlns="http://www.w3.org/2000/svg">
<path d="M9.92678 5.91145C10.122 5.71619 10.4386 5.71619 10.6339 5.91145L10.7446 6.02212C10.9398 6.21738 10.9398 6.53397 10.7446 6.72923L3.19122 14.2826C3.09745 14.3763 2.97028 14.429 2.83767 14.429H2.427C2.31654 14.429 2.227 14.3395 2.227 14.229V13.8183C2.227 13.6857 2.27967 13.5586 2.37344 13.4648L9.92678 5.91145ZM13.4803 0.206787C13.2581 0.206787 13.027 0.295676 12.8581 0.464565L11.585 1.73768C11.3897 1.93294 11.3897 2.24952 11.585 2.44478L14.2112 5.07101C14.4065 5.26627 14.7231 5.26627 14.9183 5.07101L16.1914 3.7979C16.5381 3.45123 16.5381 2.89123 16.1914 2.54456L14.1114 0.464565C13.9337 0.286787 13.7114 0.206787 13.4803 0.206787ZM10.6339 3.3959C10.4386 3.20063 10.122 3.20063 9.92678 3.3959L0.742112 12.5806C0.554576 12.7681 0.449219 13.0225 0.449219 13.2877V15.7068C0.449219 15.9829 0.673076 16.2068 0.949219 16.2068H3.36834C3.63356 16.2068 3.88791 16.1014 4.07545 15.9139L13.2601 6.72923C13.4554 6.53397 13.4554 6.21738 13.2601 6.02212L10.6339 3.3959Z" fill="#535659"/>
</svg>
