<svg width="25" height="25" viewBox="0 0 25 25" fill="none" xmlns="http://www.w3.org/2000/svg">
<path fill-rule="evenodd" clip-rule="evenodd" d="M3.31652 3.30143C6.43663 0.181321 11.4954 0.181478 14.6155 3.30158C17.4285 6.11459 17.7054 10.5033 15.446 13.6264C15.333 13.7824 15.3448 13.9985 15.481 14.1347L16.0602 14.7139C16.163 14.8166 16.3147 14.8489 16.4563 14.8169C17.1527 14.66 17.9118 14.8524 18.4539 15.3945L24.346 21.2866C25.1866 22.1272 25.1867 23.4903 24.346 24.3309C23.5054 25.1716 22.1423 25.1716 21.3018 24.3309L15.4097 18.4388C14.8675 17.8968 14.675 17.1375 14.8321 16.4412C14.864 16.2995 14.8318 16.1478 14.7291 16.0451L14.1498 15.4658C14.0136 15.3297 13.7975 15.3179 13.6415 15.4308C10.5184 17.6902 6.12972 17.4134 3.31671 14.6004C0.196607 11.4803 0.196481 6.42147 3.31652 3.30143ZM13.3498 4.56728C10.9286 2.14607 7.00334 2.14607 4.58229 4.56712C2.16123 6.98818 2.16123 10.9135 4.58244 13.3347C7.00341 15.7556 10.9287 15.7556 13.3498 13.3346C15.7708 10.9135 15.7708 6.98825 13.3498 4.56728Z" fill="#364154"/>
</svg>
