<svg width="206" height="45" viewBox="0 0 206 45" fill="none" xmlns="http://www.w3.org/2000/svg">
<path d="M7.54216 6.91323L7.19368 6.65231L6.88729 6.96158L6.44167 7.41138L6.13529 7.72064L6.39945 8.06667L25.7456 33.4087L25.8956 33.6053H26.143H31.9163C32.648 33.6053 33.2411 33.0122 33.2411 32.2805V26.4048V26.1545L33.0408 26.0045L7.54216 6.91323Z" fill="#6D6CC1" stroke="#6D6CC1"/>
<path fill-rule="evenodd" clip-rule="evenodd" d="M2.9507 0.421214C1.31684 0.331585 -0.0327345 1.68111 0.0569625 3.31504L1.54555 30.4339C1.72921 33.7798 3.22085 37.208 5.85554 39.8425C11.1399 45.127 19.472 45.714 24.4149 40.7715C26.0184 39.1678 27.0422 37.2066 27.5131 35.1119C28.0046 32.9243 27.0869 30.8518 25.8805 29.3327L25.88 29.332L25.8791 29.3308L11.5139 11.8784L28.9545 26.2337L28.9602 26.2382L28.9626 26.2401C30.4532 27.4243 32.4807 28.3349 34.6354 27.8799C36.7916 27.4242 38.8013 26.3849 40.4072 24.7791C45.3502 19.8362 44.7625 11.5042 39.4785 6.2198C36.7924 3.53364 33.4524 2.14031 30.0848 1.91074L30.0805 1.9104L2.9507 0.421214ZM2.37031 3.18804C2.35625 2.93202 2.56771 2.72052 2.82378 2.73456L29.932 4.22253L29.9334 4.22262C32.759 4.41665 35.5649 5.58263 37.8402 7.85802C42.3934 12.4115 42.6425 19.2674 38.7689 23.1409C37.4981 24.4116 35.8986 25.2449 34.1565 25.6131C32.9409 25.8698 31.6068 25.3825 30.4013 24.4242L30.4002 24.4233L7.46404 5.64044L7.46266 5.63932C6.67221 4.99784 5.74013 5.28353 5.25716 5.89118C4.84871 6.40507 4.74115 7.16961 5.27498 7.82743L5.27554 7.82812L5.2759 7.82856L24.0623 30.7686L24.0643 30.7711C25.0407 31.9995 25.5308 33.3658 25.2527 34.6039C24.8727 36.294 24.0534 37.8564 22.7766 39.1334C18.903 43.0065 12.0472 42.7577 7.49373 38.2042C5.25236 35.963 4.0105 33.0689 3.85889 30.307L2.37031 3.18804Z" fill="#6D6CC1"/>
<path d="M54.7349 7.30851H63.3386V32.82C63.3386 33.8045 64.4943 34.0185 66.2921 34.0185C68.1327 34.0185 69.2456 33.8045 69.2456 32.7772V7.30851H77.0788C78.2345 7.30851 78.4057 6.36681 78.4057 4.69744C78.4057 3.07087 78.2345 2.08637 77.0788 2.08637H54.7349V7.30851Z" fill="#6D6CC1"/>
<path d="M85.5725 19.3794C85.5725 17.1107 87.7983 15.527 89.8529 15.527H94.6898C95.6315 15.527 95.974 14.9277 95.974 13.0015C95.974 11.0753 95.6315 10.5188 94.6898 10.5188H90.3666C88.6116 10.5188 86.5998 11.4605 85.5725 13.0871V10.5188H80.0079V32.7344C80.0079 33.5905 80.65 34.0185 82.7902 34.0185C84.9732 34.0185 85.5725 33.5905 85.5725 32.7344V19.3794Z" fill="#6D6CC1"/>
<path d="M99.9203 32.7344C99.9203 33.5905 100.648 34.0185 102.788 34.0185C104.971 34.0185 105.699 33.5905 105.699 32.7344V10.048H99.9203V32.7344ZM99.3639 3.84135C99.3639 5.76755 100.905 7.30851 102.831 7.30851C104.757 7.30851 106.298 5.76755 106.298 3.84135C106.298 1.95795 104.757 0.416992 102.831 0.416992C100.905 0.416992 99.3639 1.95795 99.3639 3.84135Z" fill="#6D6CC1"/>
<path d="M116.756 21.862C116.756 17.7528 119.11 14.9277 122.62 14.9277C126.259 14.9277 128.356 18.138 128.356 22.0761C128.356 25.8428 126.259 29.1816 122.62 29.1816C120.223 29.1816 116.756 27.5122 116.756 21.862ZM116.799 31.7071C118.426 33.248 120.737 34.1897 122.963 34.1897C130.026 34.1897 134.006 28.5395 134.006 22.0761C134.006 15.3986 129.854 9.91958 123.477 9.91958C120.437 9.91958 117.826 11.3321 116.756 12.6591V10.5188H111.192V42.879C111.192 43.7351 111.834 44.1632 113.974 44.1632C116.157 44.1632 116.799 43.7351 116.799 42.879V31.7071Z" fill="#6D6CC1"/>
<path d="M143.551 21.862C143.551 17.7528 145.905 14.9277 149.415 14.9277C153.053 14.9277 155.151 18.138 155.151 22.0761C155.151 25.8428 153.053 29.1816 149.415 29.1816C147.018 29.1816 143.551 27.5122 143.551 21.862ZM143.594 31.7071C145.22 33.248 147.532 34.1897 149.757 34.1897C156.82 34.1897 160.801 28.5395 160.801 22.0761C160.801 15.3986 156.649 9.91958 150.271 9.91958C147.232 9.91958 144.621 11.3321 143.551 12.6591V10.5188H137.986V42.879C137.986 43.7351 138.628 44.1632 140.769 44.1632C142.952 44.1632 143.594 43.7351 143.594 42.879V31.7071Z" fill="#6D6CC1"/>
<path d="M169.661 19.6362C170.089 17.1963 171.758 14.8849 174.925 14.8421C177.751 14.7993 179.891 16.9395 180.233 19.6362H169.661ZM176.723 34.1897C179.206 34.1897 182.117 33.5048 183.615 32.6488C184.642 32.0495 184.685 31.5786 183.957 29.7809C183.315 28.2399 182.759 27.8119 181.774 28.1971C180.319 28.6679 178.179 29.2244 176.509 29.2244C173.342 29.2244 170.303 27.6834 169.703 24.5587H183.872C185.07 24.5587 185.926 23.9595 185.926 22.3757C185.926 16.0834 182.074 9.91958 174.883 9.91958C168.462 9.91958 163.925 14.6709 163.925 22.1189C163.925 29.9093 169.489 34.1897 176.723 34.1897Z" fill="#6D6CC1"/>
<path d="M195.384 19.3794C195.384 17.1107 197.61 15.527 199.665 15.527H204.502C205.443 15.527 205.786 14.9277 205.786 13.0015C205.786 11.0753 205.443 10.5188 204.502 10.5188H200.178C198.423 10.5188 196.412 11.4605 195.384 13.0871V10.5188H189.82V32.7344C189.82 33.5905 190.462 34.0185 192.602 34.0185C194.785 34.0185 195.384 33.5905 195.384 32.7344V19.3794Z" fill="#6D6CC1"/>
</svg>
