<svg width="25" height="24" viewBox="0 0 25 24" fill="none" xmlns="http://www.w3.org/2000/svg">
<path fill-rule="evenodd" clip-rule="evenodd" d="M4.15854 3.78345L3.91406 4.03022L14.5277 17.9333H17.6951C17.945 17.9333 18.1476 17.7308 18.1476 17.4809V14.2573L4.15854 3.78345Z" fill="#535659"/>
<path fill-rule="evenodd" clip-rule="evenodd" d="M1.80472 0.0023163C0.908355 -0.046856 0.167954 0.693521 0.217163 1.58992L1.03383 16.4679C1.13459 18.3035 1.95293 20.1843 3.39837 21.6296C6.29749 24.5288 10.8687 24.8508 13.5804 22.1393C14.4601 21.2594 15.0218 20.1835 15.2802 19.0343C15.5498 17.8342 15.0463 16.6972 14.3845 15.8637L14.3842 15.8633L14.3837 15.8627L6.50266 6.28794L16.0709 14.1636L16.074 14.166L16.0753 14.1671C16.8931 14.8168 18.0055 15.3163 19.1875 15.0667C20.3705 14.8167 21.4731 14.2465 22.3541 13.3655C25.0659 10.6538 24.7435 6.08263 21.8446 3.18353C20.3709 1.70985 18.5385 0.945447 16.691 0.8195L16.6887 0.819315L1.80472 0.0023163ZM1.48631 1.52025C1.4786 1.37979 1.59461 1.26376 1.7351 1.27146L16.6072 2.08779L16.6079 2.08784C18.1581 2.19429 19.6975 2.83397 20.9458 4.08229C23.4438 6.58043 23.5804 10.3417 21.4553 12.4668C20.7581 13.1639 19.8806 13.6211 18.9248 13.8231C18.2579 13.9639 17.526 13.6966 16.8647 13.1708L16.864 13.1703L4.28083 2.86568L4.28007 2.86507C3.84642 2.51314 3.33506 2.66988 3.07009 3.00324C2.84601 3.28517 2.787 3.70462 3.07987 4.06551L3.08018 4.06589L3.08038 4.06613L13.387 16.6515L13.388 16.6528C13.9237 17.3268 14.1926 18.0764 14.04 18.7556C13.8316 19.6829 13.3821 20.54 12.6816 21.2406C10.5565 23.3655 6.79523 23.229 4.29712 20.7308C3.06746 19.5012 2.38615 17.9135 2.30298 16.3982L1.48631 1.52025Z" fill="#535659"/>
</svg>
