<svg width="25" height="26" viewBox="0 0 25 26" fill="none" xmlns="http://www.w3.org/2000/svg">
<path d="M19.9174 6.23009L21.4626 5.60232L23.5201 9.20318L22.1967 10.2501C21.3202 10.9434 20.9664 11.9959 20.9664 12.9615C20.9664 13.9272 21.3202 14.9797 22.1967 15.673L23.5201 16.7199L21.4626 20.3208L19.9093 19.6897C18.8888 19.2751 17.8021 19.4721 16.9623 19.9707C16.142 20.4577 15.4183 21.294 15.2633 22.388L15.023 24.0828H10.9368L10.6955 22.38C10.541 21.2906 9.82176 20.4598 9.00099 19.9773L8.49417 20.8393L9.00098 19.9773C8.16509 19.4858 7.07251 19.2745 6.04249 19.693L4.49729 20.3208L2.43978 16.7199L3.76321 15.673L3.14279 14.8887L3.76321 15.673C4.63966 14.9796 4.99344 13.9272 4.99344 12.9615C4.99344 11.9959 4.63966 10.9434 3.76321 10.2501L2.43978 9.20318L4.49729 5.60232L6.05052 6.23336C7.071 6.64795 8.15778 6.45095 8.9975 5.95242C9.81786 5.46539 10.5415 4.62913 10.6966 3.53513L10.9368 1.84033H15.023L15.2644 3.54307C15.4188 4.63244 16.1381 5.46329 16.9589 5.94583C17.7948 6.43726 18.8873 6.64856 19.9174 6.23009Z" stroke="#364154" stroke-width="2"/>
<circle cx="12.8574" cy="12.6211" r="4.23242" stroke="#364154" stroke-width="2"/>
</svg>
