<svg width="206" height="45" viewBox="0 0 206 45" fill="none" xmlns="http://www.w3.org/2000/svg">
<path d="M7.68279 6.93374L7.33431 6.67282L7.02792 6.98209L6.5823 7.43189L6.27591 7.74115L6.54007 8.08718L25.8862 33.4292L26.0363 33.6258H26.2836H32.0569C32.7886 33.6258 33.3817 33.0327 33.3817 32.301V26.4253V26.175L33.1814 26.0251L7.68279 6.93374Z" fill="white" stroke="white"/>
<path fill-rule="evenodd" clip-rule="evenodd" d="M3.09133 0.441722C1.45746 0.352093 0.10789 1.70162 0.197588 3.33554L1.68617 30.4544C1.86983 33.8003 3.36148 37.2285 5.99616 39.863C11.2806 45.1475 19.6127 45.7345 24.5555 40.792C26.159 39.1883 27.1829 37.2271 27.6538 35.1324C28.1452 32.9449 27.2275 30.8724 26.0212 29.3532L26.0206 29.3525L26.0198 29.3513L11.6545 11.8989L29.0951 26.2542L29.1008 26.2587L29.1032 26.2606C30.5938 27.4448 32.6213 28.3554 34.776 27.9004C36.9322 27.4447 38.9419 26.4054 40.5478 24.7996C45.4908 19.8567 44.9031 11.5247 39.6191 6.2403C36.933 3.55415 33.593 2.16082 30.2255 1.93125L30.2212 1.93091L3.09133 0.441722ZM2.51093 3.20855C2.49688 2.95253 2.70834 2.74103 2.96441 2.75507L30.0727 4.24304L30.074 4.24313C32.8996 4.43716 35.7055 5.60314 37.9808 7.87852C42.5341 12.432 42.7831 19.2879 38.9096 23.1614C37.6387 24.4321 36.0392 25.2654 34.2971 25.6336C33.0815 25.8903 31.7474 25.403 30.5419 24.4447L30.5408 24.4438L7.60467 5.66094L7.60328 5.65982C6.81283 5.01835 5.88075 5.30404 5.39779 5.91169C4.98934 6.42557 4.88177 7.19011 5.41561 7.84794L5.41617 7.84863L5.41653 7.84907L24.2029 30.7891L24.2049 30.7916C25.1813 32.02 25.6714 33.3863 25.3933 34.6244C25.0133 36.3146 24.194 37.8769 22.9172 39.1539C19.0437 43.0271 12.1878 42.7782 7.63436 38.2247C5.39298 35.9835 4.15112 33.0894 3.99952 30.3275L2.51093 3.20855Z" fill="white"/>
<path d="M54.8755 7.32902H63.4792V32.8405C63.4792 33.825 64.6349 34.039 66.4327 34.039C68.2733 34.039 69.3862 33.825 69.3862 32.7977V7.32902H77.2194C78.3751 7.32902 78.5464 6.38732 78.5464 4.71795C78.5464 3.09138 78.3751 2.10688 77.2194 2.10688H54.8755V7.32902Z" fill="white"/>
<path d="M85.7131 19.3999C85.7131 17.1312 87.9389 15.5475 89.9935 15.5475H94.8305C95.7722 15.5475 96.1146 14.9482 96.1146 13.022C96.1146 11.0958 95.7722 10.5394 94.8305 10.5394H90.5072C88.7522 10.5394 86.7404 11.4811 85.7131 13.1076V10.5394H80.1485V32.7549C80.1485 33.611 80.7906 34.039 82.9308 34.039C85.1138 34.039 85.7131 33.611 85.7131 32.7549V19.3999Z" fill="white"/>
<path d="M100.061 32.7549C100.061 33.611 100.789 34.039 102.929 34.039C105.112 34.039 105.84 33.611 105.84 32.7549V10.0685H100.061V32.7549ZM99.5045 3.86186C99.5045 5.78806 101.045 7.32902 102.972 7.32902C104.898 7.32902 106.439 5.78806 106.439 3.86186C106.439 1.97846 104.898 0.4375 102.972 0.4375C101.045 0.4375 99.5045 1.97846 99.5045 3.86186Z" fill="white"/>
<path d="M116.897 21.8825C116.897 17.7733 119.251 14.9482 122.761 14.9482C126.399 14.9482 128.497 18.1586 128.497 22.0966C128.497 25.8634 126.399 29.2021 122.761 29.2021C120.364 29.2021 116.897 27.5327 116.897 21.8825ZM116.94 31.7276C118.566 33.2685 120.878 34.2102 123.103 34.2102C130.166 34.2102 134.147 28.56 134.147 22.0966C134.147 15.4191 129.995 9.94009 123.617 9.94009C120.578 9.94009 117.967 11.3526 116.897 12.6796V10.5394H111.332V42.8995C111.332 43.7556 111.974 44.1837 114.115 44.1837C116.298 44.1837 116.94 43.7556 116.94 42.8995V31.7276Z" fill="white"/>
<path d="M143.691 21.8825C143.691 17.7733 146.046 14.9482 149.556 14.9482C153.194 14.9482 155.291 18.1586 155.291 22.0966C155.291 25.8634 153.194 29.2021 149.556 29.2021C147.159 29.2021 143.691 27.5327 143.691 21.8825ZM143.734 31.7276C145.361 33.2685 147.672 34.2102 149.898 34.2102C156.961 34.2102 160.942 28.56 160.942 22.0966C160.942 15.4191 156.79 9.94009 150.412 9.94009C147.373 9.94009 144.762 11.3526 143.691 12.6796V10.5394H138.127V42.8995C138.127 43.7556 138.769 44.1837 140.909 44.1837C143.092 44.1837 143.734 43.7556 143.734 42.8995V31.7276Z" fill="white"/>
<path d="M169.801 19.6567C170.229 17.2169 171.899 14.9054 175.066 14.8626C177.891 14.8198 180.031 16.96 180.374 19.6567H169.801ZM176.864 34.2102C179.347 34.2102 182.257 33.5254 183.755 32.6693C184.783 32.07 184.826 31.5992 184.098 29.8014C183.456 28.2604 182.899 27.8324 181.915 28.2176C180.459 28.6885 178.319 29.2449 176.65 29.2449C173.482 29.2449 170.443 27.7039 169.844 24.5792H184.012C185.211 24.5792 186.067 23.98 186.067 22.3962C186.067 16.1039 182.214 9.94009 175.023 9.94009C168.603 9.94009 164.065 14.6914 164.065 22.1394C164.065 29.9298 169.63 34.2102 176.864 34.2102Z" fill="white"/>
<path d="M195.525 19.3999C195.525 17.1312 197.751 15.5475 199.805 15.5475H204.642C205.584 15.5475 205.926 14.9482 205.926 13.022C205.926 11.0958 205.584 10.5394 204.642 10.5394H200.319C198.564 10.5394 196.552 11.4811 195.525 13.1076V10.5394H189.96V32.7549C189.96 33.611 190.602 34.039 192.743 34.039C194.926 34.039 195.525 33.611 195.525 32.7549V19.3999Z" fill="white"/>
</svg>
