<svg width="110" height="42" viewBox="0 0 110 42" fill="none" xmlns="http://www.w3.org/2000/svg">
<g filter="url(#filter0_d_470_35878)">
<path d="M5 21C5 12.1634 12.1634 5 21 5H89.4737C98.3102 5 105.474 12.1634 105.474 21C105.474 29.8366 98.3102 37 89.4737 37H21C12.1634 37 5 29.8366 5 21Z" fill="#535659"/>
<path d="M16.7885 24.7895C17.4862 24.7895 18.0517 24.2239 18.0517 23.5263C18.0517 22.8287 17.4862 22.2632 16.7885 22.2632C16.0909 22.2632 15.5254 22.8287 15.5254 23.5263C15.5254 24.2239 16.0909 24.7895 16.7885 24.7895Z" fill="white"/>
<path d="M22.685 24.7895C23.3827 24.7895 23.9482 24.2239 23.9482 23.5263C23.9482 22.8287 23.3827 22.2632 22.685 22.2632C21.9874 22.2632 21.4219 22.8287 21.4219 23.5263C21.4219 24.2239 21.9874 24.7895 22.685 24.7895Z" fill="white"/>
<path d="M19.7368 13C16.3684 13 13 13.4211 13 16.3684V24.3684C13 25.9937 14.3221 27.3158 15.9474 27.3158L14.6842 28.5789V29H16.3684L18.0526 27.3158H21.4211L23.1053 29H24.7895V28.5789L23.5263 27.3158C25.1516 27.3158 26.4737 25.9937 26.4737 24.3684V16.3684C26.4737 13.4211 23.1053 13 19.7368 13ZM19.7368 14.6842C22.6926 14.6842 23.9137 15.0884 24.4274 15.5263H15.0463C15.56 15.0884 16.7811 14.6842 19.7368 14.6842ZM14.6842 17.2105H18.8947V19.7368H14.6842V17.2105ZM24.7895 24.3684C24.7895 25.0674 24.2253 25.6316 23.5263 25.6316H15.9474C15.2484 25.6316 14.6842 25.0674 14.6842 24.3684V21.4211H24.7895V24.3684ZM24.7895 19.7368H20.5789V17.2105H24.7895V19.7368Z" fill="white"/>
<path d="M32.5272 22.548C33.8232 22.548 35.2632 22.368 36.1872 22.08V21.528C35.3232 21.756 34.1712 21.96 32.6832 21.96H31.9992V16.236H35.0832V15.636H31.3392V22.548H32.5272ZM39.3432 14.664V18.804H37.3272V14.784H36.6792V25.296H37.3272V19.404H39.3432V25.572H40.0032V14.664H39.3432ZM42.9504 23.664C42.9504 24.828 44.2224 25.644 46.5744 25.644C48.9264 25.644 50.1984 24.828 50.1984 23.664C50.1984 22.56 49.0464 21.78 46.8984 21.696V20.316H51.7584V19.716H41.3784V20.316H46.1904V21.696C44.0904 21.78 42.9504 22.572 42.9504 23.664ZM43.6824 23.664C43.6824 22.908 44.5584 22.284 46.5744 22.284C48.5904 22.284 49.4664 22.908 49.4664 23.664C49.4664 24.42 48.5904 25.044 46.5744 25.044C44.5584 25.044 43.6824 24.42 43.6824 23.664ZM43.1184 15.612H47.2704C47.6904 15.612 48.1104 15.6 48.5304 15.588C47.5464 16.764 45.3144 17.844 42.3264 18.324L42.6624 18.924C44.2584 18.636 45.7584 18.156 46.9704 17.496C47.9904 18.132 49.3584 18.708 50.5104 18.96L50.8704 18.312C49.6824 18.072 48.5544 17.736 47.5464 17.172C48.4584 16.608 49.1664 15.948 49.5864 15.216C49.6704 15.084 49.6224 14.952 49.4424 14.952C48.8904 14.964 48.3624 14.976 47.8584 14.976H43.1184V15.612ZM60.1056 21.636C60.5496 19.872 60.7416 17.796 60.7776 15.624H53.8056V16.248H60.0936C60.0816 18.072 59.8536 20.016 59.4336 21.636H60.1056ZM57.7296 23.364H55.7736V19.356H55.1256V23.364H52.1976V23.964H62.3256V23.364H58.3896V19.356H57.7296V23.364ZM71.5728 18.684H65.2968V17.46H71.2848V16.86H65.2968V15.588H71.3208V14.976H64.6008V19.284H67.5888V20.688H62.7768V21.288H73.1568V20.688H68.2968V19.284H71.5728V18.684ZM67.9728 25.644C70.1688 25.644 71.5248 24.912 71.5248 23.856C71.5248 22.788 70.1568 22.092 67.9728 22.092C65.7888 22.092 64.4208 22.788 64.4208 23.856C64.4208 24.912 65.7768 25.644 67.9728 25.644ZM67.9728 25.068C66.1368 25.068 65.1408 24.54 65.1408 23.88C65.1408 23.208 66.1008 22.68 67.9728 22.68C69.8448 22.68 70.8048 23.208 70.8048 23.88C70.8048 24.54 69.8088 25.068 67.9728 25.068ZM85.3036 25.572V14.664H84.6316V17.136H81.7996C81.3316 15.948 80.4796 15.336 79.4236 15.336C77.8996 15.336 76.6996 16.692 76.6996 19.236C76.6996 21.78 77.8996 23.136 79.4236 23.136C80.5396 23.136 81.4636 22.428 81.8836 21.072H84.6316V25.572H85.3036ZM81.4636 19.236C81.4636 21.192 80.7556 22.536 79.4236 22.536C78.1036 22.536 77.3836 21.192 77.3836 19.236C77.3836 17.28 78.1036 15.936 79.4236 15.936C80.7556 15.936 81.4636 17.28 81.4636 19.236ZM82.1476 19.236C82.1476 18.672 82.0876 18.18 81.9916 17.736H84.6316V20.472H82.0396C82.1116 20.1 82.1476 19.692 82.1476 19.236ZM92.6308 25.632C94.8988 25.632 96.2428 24.816 96.2428 23.724C96.2428 22.608 94.8868 21.804 92.6308 21.804C90.3748 21.804 89.0188 22.608 89.0188 23.724C89.0188 24.816 90.3268 25.632 92.6308 25.632ZM92.6308 25.044C90.7108 25.044 89.7508 24.384 89.7508 23.712C89.7508 23.004 90.7108 22.38 92.6308 22.38C94.5508 22.38 95.5108 23.004 95.5108 23.712C95.5108 24.384 94.5028 25.044 92.6308 25.044ZM95.6188 14.664V18H93.9388V14.784H93.2908V21.216H93.9388V18.576H95.6188V21.696H96.2788V14.664H95.6188ZM88.3708 19.188C88.3708 18.468 88.8628 17.868 89.9068 17.868C90.9508 17.868 91.4428 18.468 91.4428 19.188C91.4428 19.92 90.9508 20.508 89.9068 20.508C88.8628 20.508 88.3708 19.92 88.3708 19.188ZM88.3828 15.264H91.3588V14.664H88.3828V15.264ZM87.1468 16.62H92.4868V16.056H87.1468V16.62ZM87.7228 19.188C87.7228 20.208 88.4668 21.084 89.9068 21.084C91.3468 21.084 92.0908 20.208 92.0908 19.188C92.0908 18.18 91.3468 17.304 89.9068 17.304C88.4668 17.304 87.7228 18.18 87.7228 19.188Z" fill="white"/>
</g>
<defs>
<filter id="filter0_d_470_35878" x="0.9" y="0.9" width="108.675" height="40.2" filterUnits="userSpaceOnUse" color-interpolation-filters="sRGB">
<feFlood flood-opacity="0" result="BackgroundImageFix"/>
<feColorMatrix in="SourceAlpha" type="matrix" values="0 0 0 0 0 0 0 0 0 0 0 0 0 0 0 0 0 0 127 0" result="hardAlpha"/>
<feMorphology radius="0.1" operator="dilate" in="SourceAlpha" result="effect1_dropShadow_470_35878"/>
<feOffset/>
<feGaussianBlur stdDeviation="2"/>
<feComposite in2="hardAlpha" operator="out"/>
<feColorMatrix type="matrix" values="0 0 0 0 0 0 0 0 0 0 0 0 0 0 0 0 0 0 0.25 0"/>
<feBlend mode="normal" in2="BackgroundImageFix" result="effect1_dropShadow_470_35878"/>
<feBlend mode="normal" in="SourceGraphic" in2="effect1_dropShadow_470_35878" result="shape"/>
</filter>
</defs>
</svg>
