<svg width="110" height="41" viewBox="0 0 110 41" fill="none" xmlns="http://www.w3.org/2000/svg">
<g filter="url(#filter0_d_269_22851)">
<path d="M4.80469 20.8456C4.80469 12.0091 11.9681 4.84564 20.8047 4.84564H89.2784C98.1149 4.84564 105.278 12.0091 105.278 20.8456C105.278 29.6822 98.1149 36.8456 89.2784 36.8456H20.8047C11.9681 36.8456 4.80469 29.6822 4.80469 20.8456Z" fill="#F9F9FA"/>
<path d="M16.5932 24.6351C17.2909 24.6351 17.8564 24.0696 17.8564 23.372C17.8564 22.6743 17.2909 22.1088 16.5932 22.1088C15.8956 22.1088 15.3301 22.6743 15.3301 23.372C15.3301 24.0696 15.8956 24.6351 16.5932 24.6351Z" fill="#535659"/>
<path d="M22.4897 24.6351C23.1873 24.6351 23.7529 24.0696 23.7529 23.372C23.7529 22.6743 23.1873 22.1088 22.4897 22.1088C21.7921 22.1088 21.2266 22.6743 21.2266 23.372C21.2266 24.0696 21.7921 24.6351 22.4897 24.6351Z" fill="#535659"/>
<path d="M19.5415 12.8456C16.1731 12.8456 12.8047 13.2667 12.8047 16.2141V24.2141C12.8047 25.8393 14.1268 27.1614 15.7521 27.1614L14.4889 28.4246V28.8456H16.1731L17.8573 27.1614H21.2257L22.91 28.8456H24.5942V28.4246L23.331 27.1614C24.9563 27.1614 26.2784 25.8393 26.2784 24.2141V16.2141C26.2784 13.2667 22.91 12.8456 19.5415 12.8456ZM19.5415 14.5299C22.4973 14.5299 23.7184 14.9341 24.2321 15.372H14.851C15.3647 14.9341 16.5857 14.5299 19.5415 14.5299ZM14.4889 17.0562H18.6994V19.5825H14.4889V17.0562ZM24.5942 24.2141C24.5942 24.913 24.03 25.4772 23.331 25.4772H15.7521C15.0531 25.4772 14.4889 24.913 14.4889 24.2141V21.2667H24.5942V24.2141ZM24.5942 19.5825H20.3836V17.0562H24.5942V19.5825Z" fill="#535659"/>
<path d="M32.3318 22.3936C33.6278 22.3936 35.0678 22.2136 35.9918 21.9256V21.3736C35.1278 21.6016 33.9758 21.8056 32.4878 21.8056H31.8038V16.0816H34.8878V15.4816H31.1438V22.3936H32.3318ZM39.1478 14.5096V18.6496H37.1318V14.6296H36.4838V25.1416H37.1318V19.2496H39.1478V25.4176H39.8078V14.5096H39.1478ZM42.7551 23.5096C42.7551 24.6736 44.0271 25.4896 46.3791 25.4896C48.7311 25.4896 50.0031 24.6736 50.0031 23.5096C50.0031 22.4056 48.8511 21.6256 46.7031 21.5416V20.1616H51.5631V19.5616H41.1831V20.1616H45.9951V21.5416C43.8951 21.6256 42.7551 22.4176 42.7551 23.5096ZM43.4871 23.5096C43.4871 22.7536 44.3631 22.1296 46.3791 22.1296C48.3951 22.1296 49.2711 22.7536 49.2711 23.5096C49.2711 24.2656 48.3951 24.8896 46.3791 24.8896C44.3631 24.8896 43.4871 24.2656 43.4871 23.5096ZM42.9231 15.4576H47.0751C47.4951 15.4576 47.9151 15.4456 48.3351 15.4336C47.3511 16.6096 45.1191 17.6896 42.1311 18.1696L42.4671 18.7696C44.0631 18.4816 45.5631 18.0016 46.7751 17.3416C47.7951 17.9776 49.1631 18.5536 50.3151 18.8056L50.6751 18.1576C49.4871 17.9176 48.3591 17.5816 47.3511 17.0176C48.2631 16.4536 48.9711 15.7936 49.3911 15.0616C49.4751 14.9296 49.4271 14.7976 49.2471 14.7976C48.6951 14.8096 48.1671 14.8216 47.6631 14.8216H42.9231V15.4576ZM59.9103 21.4816C60.3543 19.7176 60.5463 17.6416 60.5823 15.4696H53.6103V16.0936H59.8983C59.8863 17.9176 59.6583 19.8616 59.2383 21.4816H59.9103ZM57.5343 23.2096H55.5783V19.2016H54.9303V23.2096H52.0023V23.8096H62.1303V23.2096H58.1943V19.2016H57.5343V23.2096ZM71.3775 18.5296H65.1015V17.3056H71.0895V16.7056H65.1015V15.4336H71.1255V14.8216H64.4055V19.1296H67.3935V20.5336H62.5815V21.1336H72.9615V20.5336H68.1015V19.1296H71.3775V18.5296ZM67.7775 25.4896C69.9735 25.4896 71.3295 24.7576 71.3295 23.7016C71.3295 22.6336 69.9615 21.9376 67.7775 21.9376C65.5935 21.9376 64.2255 22.6336 64.2255 23.7016C64.2255 24.7576 65.5815 25.4896 67.7775 25.4896ZM67.7775 24.9136C65.9415 24.9136 64.9455 24.3856 64.9455 23.7256C64.9455 23.0536 65.9055 22.5256 67.7775 22.5256C69.6495 22.5256 70.6095 23.0536 70.6095 23.7256C70.6095 24.3856 69.6135 24.9136 67.7775 24.9136ZM85.1083 25.4176V14.5096H84.4363V16.9816H81.6043C81.1363 15.7936 80.2843 15.1816 79.2283 15.1816C77.7043 15.1816 76.5043 16.5376 76.5043 19.0816C76.5043 21.6256 77.7043 22.9816 79.2283 22.9816C80.3443 22.9816 81.2683 22.2736 81.6883 20.9176H84.4363V25.4176H85.1083ZM81.2683 19.0816C81.2683 21.0376 80.5603 22.3816 79.2283 22.3816C77.9083 22.3816 77.1883 21.0376 77.1883 19.0816C77.1883 17.1256 77.9083 15.7816 79.2283 15.7816C80.5603 15.7816 81.2683 17.1256 81.2683 19.0816ZM81.9523 19.0816C81.9523 18.5176 81.8923 18.0256 81.7963 17.5816H84.4363V20.3176H81.8443C81.9163 19.9456 81.9523 19.5376 81.9523 19.0816ZM92.4355 25.4776C94.7035 25.4776 96.0475 24.6616 96.0475 23.5696C96.0475 22.4536 94.6915 21.6496 92.4355 21.6496C90.1795 21.6496 88.8235 22.4536 88.8235 23.5696C88.8235 24.6616 90.1315 25.4776 92.4355 25.4776ZM92.4355 24.8896C90.5155 24.8896 89.5555 24.2296 89.5555 23.5576C89.5555 22.8496 90.5155 22.2256 92.4355 22.2256C94.3555 22.2256 95.3155 22.8496 95.3155 23.5576C95.3155 24.2296 94.3075 24.8896 92.4355 24.8896ZM95.4235 14.5096V17.8456H93.7435V14.6296H93.0955V21.0616H93.7435V18.4216H95.4235V21.5416H96.0835V14.5096H95.4235ZM88.1755 19.0336C88.1755 18.3136 88.6675 17.7136 89.7115 17.7136C90.7555 17.7136 91.2475 18.3136 91.2475 19.0336C91.2475 19.7656 90.7555 20.3536 89.7115 20.3536C88.6675 20.3536 88.1755 19.7656 88.1755 19.0336ZM88.1875 15.1096H91.1635V14.5096H88.1875V15.1096ZM86.9515 16.4656H92.2915V15.9016H86.9515V16.4656ZM87.5275 19.0336C87.5275 20.0536 88.2715 20.9296 89.7115 20.9296C91.1515 20.9296 91.8955 20.0536 91.8955 19.0336C91.8955 18.0256 91.1515 17.1496 89.7115 17.1496C88.2715 17.1496 87.5275 18.0256 87.5275 19.0336Z" fill="#535659"/>
</g>
<defs>
<filter id="filter0_d_269_22851" x="0.704687" y="0.745642" width="108.675" height="40.2" filterUnits="userSpaceOnUse" color-interpolation-filters="sRGB">
<feFlood flood-opacity="0" result="BackgroundImageFix"/>
<feColorMatrix in="SourceAlpha" type="matrix" values="0 0 0 0 0 0 0 0 0 0 0 0 0 0 0 0 0 0 127 0" result="hardAlpha"/>
<feMorphology radius="0.1" operator="dilate" in="SourceAlpha" result="effect1_dropShadow_269_22851"/>
<feOffset/>
<feGaussianBlur stdDeviation="2"/>
<feComposite in2="hardAlpha" operator="out"/>
<feColorMatrix type="matrix" values="0 0 0 0 0 0 0 0 0 0 0 0 0 0 0 0 0 0 0.25 0"/>
<feBlend mode="normal" in2="BackgroundImageFix" result="effect1_dropShadow_269_22851"/>
<feBlend mode="normal" in="SourceGraphic" in2="effect1_dropShadow_269_22851" result="shape"/>
</filter>
</defs>
</svg>
