<svg width="21" height="24" viewBox="0 0 21 24" fill="none" xmlns="http://www.w3.org/2000/svg">
<path fill-rule="evenodd" clip-rule="evenodd" d="M15.1255 5.99722C15.1255 8.55198 13.0545 10.623 10.4998 10.623C7.945 10.623 5.87397 8.55198 5.87397 5.99722C5.87397 3.44247 7.945 1.37144 10.4998 1.37144C13.0545 1.37144 15.1255 3.44247 15.1255 5.99722ZM16.497 5.99722C16.497 9.3094 13.8119 11.9944 10.4998 11.9944C7.18758 11.9944 4.50253 9.3094 4.50253 5.99722C4.50253 2.68505 7.18758 0 10.4998 0C13.8119 0 16.497 2.68505 16.497 5.99722ZM17.3815 14.2638L19.1144 19.974C19.5154 21.2953 18.5266 22.6286 17.1459 22.6286H3.85275C2.47213 22.6286 1.48342 21.2955 1.88416 19.9743L3.58192 14.3771C3.79775 13.6655 4.57397 13.2886 5.26659 13.5591L5.58153 13.6821C8.90472 14.9799 12.6019 14.9372 15.8942 13.5629C16.4997 13.3102 17.1909 13.636 17.3815 14.2638ZM2.26953 13.979C2.71741 12.5024 4.32818 11.7204 5.76547 12.2816L6.08041 12.4046C9.07261 13.5731 12.4015 13.5347 15.3659 12.2973C16.7207 11.7318 18.2675 12.4607 18.6938 13.8655L20.4267 19.5757C21.095 21.7778 19.4471 24 17.1459 24H3.85275C1.55171 24 -0.0961343 21.7782 0.571771 19.5762L2.26953 13.979Z" fill="#535659"/>
</svg>
