<svg width="57" height="57" viewBox="0 0 57 57" fill="none" xmlns="http://www.w3.org/2000/svg">
<path fill-rule="evenodd" clip-rule="evenodd" d="M28.6302 4.0503C15.3886 4.0503 4.6582 14.8205 4.6582 28.1001C4.6582 41.3797 15.3886 52.15 28.6302 52.15C41.9077 52.15 52.6582 41.3719 52.6582 28.1001C52.6582 14.8284 41.9077 4.0503 28.6302 4.0503ZM0.658203 28.1001C0.658203 12.612 13.1742 0.0419922 28.6302 0.0419922C44.1142 0.0419922 56.6582 12.612 56.6582 28.1001C56.6582 43.5882 44.1142 56.1583 28.6302 56.1583C13.1742 56.1583 0.658203 43.5882 0.658203 28.1001Z" fill="#6D6CC1"/>
<path d="M28.6566 41.4585C22.6514 41.4585 17.4529 38.0115 14.917 32.9773C14.5999 32.3477 15.0804 31.6382 15.7843 31.6382H41.5289C42.2328 31.6382 42.7134 32.3477 42.3962 32.9773C39.8604 38.0115 34.6618 41.4585 28.6566 41.4585Z" fill="#6D6CC1"/>
<path fill-rule="evenodd" clip-rule="evenodd" d="M16.9951 21.1352L19.4269 23.5719C20.0127 24.159 20.9624 24.159 21.5482 23.5719C22.134 22.9849 22.134 22.0332 21.5482 21.4462L18.7629 18.6551C17.7866 17.6768 16.2036 17.6768 15.2273 18.6552L12.4422 21.4463C11.8565 22.0333 11.8565 22.985 12.4423 23.572C13.0281 24.159 13.9779 24.1589 14.5636 23.5719L16.9951 21.1352Z" fill="#6D6CC1"/>
<path fill-rule="evenodd" clip-rule="evenodd" d="M40.4102 21.1352L42.8419 23.5719C43.4277 24.159 44.3774 24.159 44.9632 23.5719C45.549 22.9849 45.549 22.0332 44.9632 21.4462L42.1779 18.6551C41.2016 17.6768 39.6186 17.6768 38.6423 18.6552L35.8573 21.4463C35.2715 22.0333 35.2715 22.985 35.8573 23.572C36.4432 24.159 37.3929 24.1589 37.9787 23.5719L40.4102 21.1352Z" fill="#6D6CC1"/>
</svg>
