<svg width="57" height="57" viewBox="0 0 57 57" fill="none" xmlns="http://www.w3.org/2000/svg">
<path fill-rule="evenodd" clip-rule="evenodd" d="M28.0286 4.0503C14.787 4.0503 4.05664 14.8205 4.05664 28.1001C4.05664 41.3797 14.787 52.15 28.0286 52.15C41.3061 52.15 52.0566 41.3719 52.0566 28.1001C52.0566 14.8284 41.3061 4.0503 28.0286 4.0503ZM0.0566406 28.1001C0.0566406 12.612 12.5726 0.0419922 28.0286 0.0419922C43.5126 0.0419922 56.0566 12.612 56.0566 28.1001C56.0566 43.5882 43.5126 56.1583 28.0286 56.1583C12.5726 56.1583 0.0566406 43.5882 0.0566406 28.1001Z" fill="#6D6CC1"/>
<path d="M28.0543 31.6381C34.0595 31.6381 39.2581 35.0852 41.7939 40.1194C42.1111 40.749 41.6305 41.4585 40.9266 41.4585L15.182 41.4585C14.4781 41.4585 13.9976 40.749 14.3148 40.1194C16.8506 35.0852 22.0491 31.6381 28.0543 31.6381Z" fill="#6D6CC1"/>
<path fill-rule="evenodd" clip-rule="evenodd" d="M15.9745 20.7589L13.5428 23.1957C12.957 23.7827 12.957 24.7344 13.5428 25.3214C14.1286 25.9084 15.0783 25.9084 15.6641 25.3214L18.4494 22.5304C19.4257 21.552 19.4257 19.9657 18.4493 18.9874L15.6641 16.1966C15.0783 15.6096 14.1285 15.6096 13.5428 16.1966C12.957 16.7837 12.957 17.7354 13.5428 18.3224L15.9745 20.7589Z" fill="#6D6CC1"/>
<path fill-rule="evenodd" clip-rule="evenodd" d="M40.1407 20.7596L42.5724 18.3228C43.1582 17.7358 43.1582 16.7841 42.5724 16.1971C41.9867 15.6101 41.0369 15.6101 40.4511 16.1971L37.6658 18.9882C36.6895 19.9666 36.6895 21.5528 37.6659 22.5311L40.4512 25.322C41.037 25.909 41.9867 25.9089 42.5725 25.3219C43.1583 24.7349 43.1582 23.7832 42.5724 23.1962L40.1407 20.7596Z" fill="#6D6CC1"/>
</svg>
