<svg width="29" height="29" viewBox="0 0 29 29" fill="none" xmlns="http://www.w3.org/2000/svg">
<path fill-rule="evenodd" clip-rule="evenodd" d="M14.6032 2.04761C7.98236 2.04761 2.61719 7.42157 2.61719 14.0476C2.61719 20.6736 7.98236 26.0476 14.6032 26.0476C21.2419 26.0476 26.6172 20.6697 26.6172 14.0476C26.6172 7.42548 21.2419 2.04761 14.6032 2.04761ZM0.617188 14.0476C0.617188 6.31961 6.87519 0.0476074 14.6032 0.0476074C22.3452 0.0476074 28.6172 6.31961 28.6172 14.0476C28.6172 21.7756 22.3452 28.0476 14.6032 28.0476C6.87519 28.0476 0.617188 21.7756 0.617188 14.0476Z" fill="#6D6CC1"/>
<path d="M14.6169 20.713C11.6143 20.713 9.015 18.993 7.7471 16.4812C7.58851 16.167 7.82879 15.813 8.18073 15.813H21.053C21.405 15.813 21.6453 16.167 21.4867 16.4812C20.2188 18.993 17.6195 20.713 14.6169 20.713Z" fill="#6D6CC1"/>
<path fill-rule="evenodd" clip-rule="evenodd" d="M8.78517 10.5723L10.001 11.7882C10.2939 12.0811 10.7688 12.0811 11.0617 11.7882C11.3546 11.4953 11.3546 11.0204 11.0617 10.7275L9.66905 9.33487C9.18088 8.8467 8.3894 8.84671 7.90125 9.3349L6.50871 10.7275C6.21583 11.0204 6.21585 11.4953 6.50875 11.7882C6.80166 12.0811 7.27653 12.0811 7.56941 11.7882L8.78517 10.5723Z" fill="#6D6CC1"/>
<path fill-rule="evenodd" clip-rule="evenodd" d="M20.4922 10.5723L21.7081 11.7882C22.001 12.0811 22.4758 12.0811 22.7687 11.7882C23.0616 11.4953 23.0616 11.0204 22.7687 10.7275L21.3761 9.33487C20.8879 8.8467 20.0964 8.84671 19.6083 9.3349L18.2157 10.7275C17.9229 11.0204 17.9229 11.4953 18.2158 11.7882C18.5087 12.0811 18.9836 12.0811 19.2764 11.7882L20.4922 10.5723Z" fill="#6D6CC1"/>
</svg>
