<svg width="29" height="29" viewBox="0 0 29 29" fill="none" xmlns="http://www.w3.org/2000/svg">
<path fill-rule="evenodd" clip-rule="evenodd" d="M14.4782 2.04761C7.85736 2.04761 2.49219 7.42157 2.49219 14.0476C2.49219 20.6736 7.85736 26.0476 14.4782 26.0476C21.1169 26.0476 26.4922 20.6697 26.4922 14.0476C26.4922 7.42548 21.1169 2.04761 14.4782 2.04761ZM0.492188 14.0476C0.492188 6.31961 6.75019 0.0476074 14.4782 0.0476074C22.2202 0.0476074 28.4922 6.31961 28.4922 14.0476C28.4922 21.7756 22.2202 28.0476 14.4782 28.0476C6.75019 28.0476 0.492188 21.7756 0.492188 14.0476Z" fill="#6D6CC1"/>
<path d="M14.4905 15.8129C17.4931 15.8129 20.0924 17.5329 21.3603 20.0447C21.5189 20.3589 21.2786 20.7129 20.9267 20.7129L8.05439 20.7129C7.70245 20.7129 7.46217 20.3589 7.62075 20.0447C8.88866 17.5329 11.488 15.8129 14.4905 15.8129Z" fill="#6D6CC1"/>
<path fill-rule="evenodd" clip-rule="evenodd" d="M8.45113 10.3845L7.23526 11.6004C6.94237 11.8933 6.94237 12.3682 7.23526 12.6611C7.52816 12.954 8.00303 12.954 8.29592 12.6611L9.68857 11.2684C10.1767 10.7802 10.1767 9.98876 9.68854 9.50061L8.2959 8.10808C8.003 7.8152 7.52813 7.81521 7.23524 8.10812C6.94236 8.40102 6.94238 8.87589 7.23528 9.16878L8.45113 10.3845Z" fill="#6D6CC1"/>
<path fill-rule="evenodd" clip-rule="evenodd" d="M20.5342 10.385L21.7501 9.16913C22.043 8.87624 22.043 8.40136 21.7501 8.10847C21.4572 7.81558 20.9823 7.81558 20.6894 8.10847L19.2968 9.50112C18.8086 9.98929 18.8086 10.7808 19.2968 11.2689L20.6894 12.6615C20.9824 12.9543 21.4572 12.9543 21.7501 12.6614C22.043 12.3685 22.043 11.8936 21.7501 11.6008L20.5342 10.385Z" fill="#6D6CC1"/>
</svg>
