<svg width="96" height="42" viewBox="0 0 96 42" fill="none" xmlns="http://www.w3.org/2000/svg">
<g filter="url(#filter0_d_269_22854)">
<path d="M5 21C5 12.1634 12.1634 5 21 5H75.7449C84.5815 5 91.7449 12.1634 91.7449 21V21C91.7449 29.8366 84.5815 37 75.7449 37H21C12.1635 37 5 29.8366 5 21V21Z" fill="#F9F9FA"/>
<path d="M18.6221 15.9401C19.4466 15.9401 20.1213 15.2655 20.1213 14.4409C20.1213 13.6164 19.4466 12.9417 18.6221 12.9417C17.7975 12.9417 17.1228 13.6164 17.1228 14.4409C17.1228 15.2655 17.7975 15.9401 18.6221 15.9401ZM15.6204 18.5775C15.7192 18.5391 15.8215 18.6249 15.8008 18.7288L13.9347 28.1263C13.8389 28.6087 14.208 29.0583 14.6998 29.0583C15.0646 29.0583 15.3807 28.8054 15.4608 28.4495L16.6211 23.2927C16.644 23.1908 16.7691 23.1529 16.8447 23.2249L18.0389 24.3622C18.1719 24.4889 18.2473 24.6647 18.2473 24.8484V28.3087C18.2473 28.7227 18.5829 29.0583 18.9969 29.0583C19.4109 29.0583 19.7465 28.7227 19.7465 28.3087V23.724C19.7465 23.5402 19.6712 23.3645 19.5381 23.2377L18.1723 21.937L18.5683 19.9569C18.5902 19.8474 18.7294 19.81 18.8069 19.8904C19.6215 20.7363 20.7456 21.3369 21.9976 21.5106C22.4077 21.5675 22.7449 21.2266 22.7449 20.8126C22.7449 20.3986 22.4062 20.0707 21.9996 19.9927C20.9082 19.7833 20.0133 19.1244 19.5216 18.2639L18.772 17.0646C18.3522 16.3974 17.5126 16.1275 16.7855 16.4349L13.4095 17.8655C13.1613 17.9707 13 18.2142 13 18.4838V20.8126C13 21.2266 13.3356 21.5622 13.7496 21.5622C14.1636 21.5622 14.4992 21.2266 14.4992 20.8126V19.4729C14.4992 19.196 14.6692 18.9474 14.9273 18.847L15.6204 18.5775Z" fill="#535659"/>
<path d="M32.0863 20.652V23.34H27.4183V23.94H37.5463V23.34H32.8063V20.652H35.8903V20.04H29.7703V16.248H35.8183V15.624H29.0743V20.652H32.0863ZM46.5775 15.336H45.8815V17.268H40.5055V15.336H39.8095V20.904H42.8095V23.34H38.1175V23.94H48.2455V23.34H43.5295V20.904H46.5775V15.336ZM40.5055 20.304V17.868H45.8815V20.304H40.5055ZM57.5767 20.7H51.2047V18.672H57.1927V15.492H50.5327V16.116H56.4967V18.072H50.5087V21.3H53.5087V23.46H48.8167V24.06H58.9447V23.46H54.2287V21.3H57.5767V20.7ZM71.2235 25.572V14.664H70.5515V17.136H67.7195C67.2515 15.948 66.3995 15.336 65.3435 15.336C63.8195 15.336 62.6195 16.692 62.6195 19.236C62.6195 21.78 63.8195 23.136 65.3435 23.136C66.4595 23.136 67.3835 22.428 67.8035 21.072H70.5515V25.572H71.2235ZM67.3835 19.236C67.3835 21.192 66.6755 22.536 65.3435 22.536C64.0235 22.536 63.3035 21.192 63.3035 19.236C63.3035 17.28 64.0235 15.936 65.3435 15.936C66.6755 15.936 67.3835 17.28 67.3835 19.236ZM68.0675 19.236C68.0675 18.672 68.0075 18.18 67.9115 17.736H70.5515V20.472H67.9595C68.0315 20.1 68.0675 19.692 68.0675 19.236ZM78.5508 25.632C80.8188 25.632 82.1628 24.816 82.1628 23.724C82.1628 22.608 80.8068 21.804 78.5508 21.804C76.2948 21.804 74.9388 22.608 74.9388 23.724C74.9388 24.816 76.2468 25.632 78.5508 25.632ZM78.5508 25.044C76.6308 25.044 75.6708 24.384 75.6708 23.712C75.6708 23.004 76.6308 22.38 78.5508 22.38C80.4708 22.38 81.4308 23.004 81.4308 23.712C81.4308 24.384 80.4228 25.044 78.5508 25.044ZM81.5388 14.664V18H79.8588V14.784H79.2108V21.216H79.8588V18.576H81.5388V21.696H82.1988V14.664H81.5388ZM74.2908 19.188C74.2908 18.468 74.7828 17.868 75.8268 17.868C76.8708 17.868 77.3628 18.468 77.3628 19.188C77.3628 19.92 76.8708 20.508 75.8268 20.508C74.7828 20.508 74.2908 19.92 74.2908 19.188ZM74.3028 15.264H77.2788V14.664H74.3028V15.264ZM73.0668 16.62H78.4068V16.056H73.0668V16.62ZM73.6428 19.188C73.6428 20.208 74.3868 21.084 75.8268 21.084C77.2668 21.084 78.0108 20.208 78.0108 19.188C78.0108 18.18 77.2668 17.304 75.8268 17.304C74.3868 17.304 73.6428 18.18 73.6428 19.188Z" fill="#535659"/>
</g>
<defs>
<filter id="filter0_d_269_22854" x="0.9" y="0.9" width="94.9441" height="40.2" filterUnits="userSpaceOnUse" color-interpolation-filters="sRGB">
<feFlood flood-opacity="0" result="BackgroundImageFix"/>
<feColorMatrix in="SourceAlpha" type="matrix" values="0 0 0 0 0 0 0 0 0 0 0 0 0 0 0 0 0 0 127 0" result="hardAlpha"/>
<feMorphology radius="0.1" operator="dilate" in="SourceAlpha" result="effect1_dropShadow_269_22854"/>
<feOffset/>
<feGaussianBlur stdDeviation="2"/>
<feComposite in2="hardAlpha" operator="out"/>
<feColorMatrix type="matrix" values="0 0 0 0 0 0 0 0 0 0 0 0 0 0 0 0 0 0 0.25 0"/>
<feBlend mode="normal" in2="BackgroundImageFix" result="effect1_dropShadow_269_22854"/>
<feBlend mode="normal" in="SourceGraphic" in2="effect1_dropShadow_269_22854" result="shape"/>
</filter>
</defs>
</svg>
