<svg width="13" height="13" viewBox="0 0 13 13" fill="none" xmlns="http://www.w3.org/2000/svg">
<path fill-rule="evenodd" clip-rule="evenodd" d="M6.74108 8.39302C6.8393 8.29475 6.9986 8.29475 7.09686 8.39302L11.1988 12.495C11.5918 12.888 12.2305 12.8865 12.6234 12.4935C13.0165 12.1005 13.0179 11.4619 12.625 11.0689L8.52295 6.96687C8.42473 6.86865 8.42473 6.70935 8.52295 6.61108L12.6248 2.50923C13.0178 2.11626 13.0163 1.4776 12.6233 1.08459C12.2303 0.691621 11.5916 0.690111 11.1987 1.08313L7.09686 5.18498C6.9986 5.2832 6.8393 5.2832 6.74108 5.18498L2.63922 1.08308C2.24621 0.690061 1.60761 0.69157 1.21459 1.08454C0.82163 1.47755 0.820121 2.11621 1.21313 2.50918L5.31494 6.61108C5.41321 6.70935 5.41321 6.86865 5.31494 6.96687L1.21293 11.069C0.81997 11.4619 0.821429 12.1006 1.21444 12.4936C1.60741 12.8866 2.24606 12.888 2.63902 12.4951L6.74108 8.39302Z" fill="#535659"/>
</svg>
