<svg width="17" height="17" viewBox="0 0 17 17" fill="none" xmlns="http://www.w3.org/2000/svg">
<circle cx="8.73633" cy="8.78589" r="8" fill="#535659"/>
<path fill-rule="evenodd" clip-rule="evenodd" d="M4.60648 4.6558C4.86824 4.39403 5.29265 4.39403 5.55441 4.6558L8.73656 7.83795L11.9187 4.6558C12.1805 4.39403 12.6049 4.39403 12.8666 4.6558C13.1284 4.91756 13.1284 5.34196 12.8666 5.60373L9.68449 8.78588L12.8666 11.968C13.1284 12.2298 13.1284 12.6542 12.8666 12.916C12.6049 13.1777 12.1805 13.1777 11.9187 12.916L8.73656 9.73381L5.55441 12.916C5.29265 13.1777 4.86824 13.1777 4.60648 12.916C4.34472 12.6542 4.34472 12.2298 4.60648 11.968L7.78863 8.78588L4.60648 5.60373C4.34472 5.34196 4.34472 4.91756 4.60648 4.6558Z" fill="white"/>
</svg>
