<svg width="301" height="301" viewBox="0 0 301 301" fill="none" xmlns="http://www.w3.org/2000/svg">
<path d="M0.571488 4.38198C0.463677 2.41814 2.08573 0.795814 4.04994 0.903508L211.987 12.3171L211.997 12.3178C233.671 13.8061 255.194 22.7499 272.647 40.2035C307.573 75.1316 309.484 127.72 279.771 157.432C270.023 167.18 257.754 173.571 244.391 176.396C235.066 178.365 224.833 174.627 215.586 167.276L166.962 215.942L166.977 215.96C174.467 225.384 178.226 235.864 176.093 245.361C173.179 258.325 166.894 270.309 157.1 280.104C127.388 309.814 74.7989 307.905 39.8713 272.977C22.6786 255.786 13.1528 233.586 11.9899 212.4L0.571488 4.38198Z" fill="url(#paint0_linear_2139_43696)"/>
<path fill-rule="evenodd" clip-rule="evenodd" d="M229.408 206.29V173.588L54.5264 42.6763C49.2887 38.7554 45.102 35.6213 42.0338 33.681C40.5162 32.7213 38.9182 31.8205 37.3993 31.3286C36.1527 30.9249 32.9183 30.1595 30.4013 32.7055C27.8844 35.2516 28.6871 38.477 29.1051 39.7189C29.6145 41.232 30.5336 42.8196 31.5108 44.326C33.4862 47.3716 36.6683 51.5218 40.6491 56.7139L40.6493 56.7141L173.263 229.681L203.708 230.945C208.311 231.136 212.267 231.301 215.44 231.001C218.834 230.681 222.11 229.774 224.792 227.201C227.474 224.628 228.516 221.392 228.978 218.014C229.409 214.857 229.408 210.897 229.408 206.29ZM38.556 36.4387C38.5572 36.4396 38.5645 36.4622 38.5744 36.5038C38.5597 36.4586 38.5548 36.4378 38.556 36.4387ZM34.2282 40.8167C34.2273 40.8155 34.2481 40.8201 34.2935 40.8343C34.2518 40.8249 34.2291 40.8178 34.2282 40.8167Z" fill="#5D5BBA"/>
<defs>
<linearGradient id="paint0_linear_2139_43696" x1="0.566406" y1="0.898438" x2="300.565" y2="300.9" gradientUnits="userSpaceOnUse">
<stop stop-color="#B5AFEA"/>
<stop offset="1" stop-color="#5D5BC0"/>
</linearGradient>
</defs>
</svg>
