<svg width="31" height="18" viewBox="0 0 31 18" fill="none" xmlns="http://www.w3.org/2000/svg">
<g filter="url(#filter0_d_1816_53168)">
<path d="M16.1102 1.46957L16.7202 0.677168V0.677168L16.1102 1.46957ZM24.5383 9.21953C24.9759 9.55642 25.6038 9.47475 25.9407 9.03712C26.2776 8.59949 26.1959 7.97161 25.7583 7.63472L24.5383 9.21953ZM5.24206 7.63472C4.80442 7.97161 4.72275 8.59949 5.05964 9.03712C5.39654 9.47475 6.02441 9.55642 6.46205 9.21953L5.24206 7.63472ZM14.8902 1.46957L14.2802 0.677168V0.677168L14.8902 1.46957ZM15.5002 2.26198L24.5383 9.21953L25.7583 7.63472L16.7202 0.677168L15.5002 2.26198ZM6.46205 9.21953L15.5002 2.26198L14.2802 0.677168L5.24206 7.63472L6.46205 9.21953ZM16.7202 0.677168C16.001 0.123583 14.9993 0.123584 14.2802 0.677168L15.5002 2.26198L15.5002 2.26198L16.7202 0.677168Z" fill="#F9F9FA"/>
</g>
<defs>
<filter id="filter0_d_1816_53168" x="0.852051" y="0.262207" width="29.2964" height="17.165" filterUnits="userSpaceOnUse" color-interpolation-filters="sRGB">
<feFlood flood-opacity="0" result="BackgroundImageFix"/>
<feColorMatrix in="SourceAlpha" type="matrix" values="0 0 0 0 0 0 0 0 0 0 0 0 0 0 0 0 0 0 127 0" result="hardAlpha"/>
<feOffset dy="4"/>
<feGaussianBlur stdDeviation="2"/>
<feComposite in2="hardAlpha" operator="out"/>
<feColorMatrix type="matrix" values="0 0 0 0 0 0 0 0 0 0 0 0 0 0 0 0 0 0 0.25 0"/>
<feBlend mode="normal" in2="BackgroundImageFix" result="effect1_dropShadow_1816_53168"/>
<feBlend mode="normal" in="SourceGraphic" in2="effect1_dropShadow_1816_53168" result="shape"/>
</filter>
</defs>
</svg>
